<svg width="276" height="126" viewBox="0 0 276 126" fill="none" xmlns="http://www.w3.org/2000/svg">
<path d="M271.983 85.8164C269.148 91.3337 265.387 96.2979 260.961 100.567C252.041 109.148 240.189 114.949 227.922 115.828C221.2 116.311 214.161 115.275 208.256 111.758C205.628 110.183 203.235 108.084 201.673 105.375C200.138 102.723 199.363 99.4466 199.999 96.3971C200.608 93.4896 202.489 90.9933 205.13 89.7593C207.744 88.5396 210.704 88.9792 212.723 91.1209C214.479 92.9931 215.378 95.9291 214.009 98.2977C212.861 100.283 210.565 101.219 208.38 101.049C207.467 100.978 206.195 100.61 205.545 99.9005C205.02 99.3189 204.176 100.184 204.701 100.766C205.144 101.262 205.517 101.744 206.084 102.113C206.596 102.453 207.218 102.652 207.799 102.765C209.072 103.021 210.427 102.851 211.63 102.383C214.258 101.347 216.097 99.0069 216.028 96.0426C215.959 93.0215 214.203 90.2558 211.713 88.7098C208.975 87.0219 205.476 87.3056 202.738 88.8091C199.667 90.4969 197.634 93.5747 197.123 97.078C196.556 100.879 197.551 104.822 199.695 107.971C200.774 109.559 202.06 110.935 203.484 112.155C203.208 112.439 202.959 112.751 202.668 113.048C202.226 113.531 201.769 113.999 201.285 114.438C200.414 115.247 199.488 115.97 198.506 116.637C196.431 118.027 194.177 119.076 191.798 119.743C186.889 121.119 181.689 120.835 176.903 119.133C174.359 118.24 172.035 116.679 170.03 114.836C172.049 112.353 173.75 109.588 175.036 106.652C176.876 102.453 177.872 97.9999 177.941 93.3903C177.996 88.8374 177.208 84.2562 175.534 80.0295C173.875 75.8312 171.455 71.9734 168.26 68.8247C165.12 65.7327 161.359 63.3641 157.279 61.8464C149.189 58.8112 139.881 59.4494 132.524 64.1867C128.859 66.5553 125.788 69.8742 123.921 73.9023C122.068 77.9162 121.252 82.4265 121.861 86.8376C123.023 95.4327 130.117 102.51 138.623 103.163C146.796 103.773 154.817 97.1205 155.772 88.7381C156.256 84.398 154.596 79.8168 151.125 77.2212C149.548 76.044 147.557 75.4483 145.607 75.661C143.587 75.888 141.886 76.8099 140.476 78.1573C139.134 79.448 138.429 81.1217 138.346 82.9797C138.291 84.4831 140.559 84.4831 140.614 82.9797C140.642 82.2705 140.918 81.6181 141.306 81.0224C141.471 80.7671 141.637 80.5827 141.873 80.3416C142.011 80.1997 142.163 80.0579 142.315 79.9302C142.357 79.8877 142.536 79.7317 142.509 79.7317C143.214 79.2778 143.919 79.1076 144.777 78.9232C144.874 78.909 145.136 78.8523 145.192 78.8381C145.233 78.8381 145.524 78.8098 145.607 78.8098C145.814 78.7956 146.021 78.7956 146.229 78.8098C146.326 78.8098 146.436 78.8239 146.533 78.8239C146.561 78.8239 146.589 78.8239 146.602 78.8239C146.602 78.8239 146.616 78.8239 146.644 78.8381C147.017 78.909 147.391 78.9941 147.75 79.136C147.764 79.136 147.806 79.1643 147.847 79.1785C147.916 79.2069 147.985 79.2494 148.054 79.2778C148.276 79.3913 148.511 79.5189 148.732 79.6608C149.354 80.0579 149.908 80.5543 150.489 81.306C150.502 81.3202 150.502 81.3202 150.502 81.3202C150.502 81.3344 150.516 81.3486 150.53 81.3628C150.585 81.4337 150.627 81.5046 150.682 81.5755C150.807 81.7741 150.931 81.9727 151.056 82.1712C151.291 82.5684 151.498 82.9797 151.692 83.391C151.692 83.4052 151.844 83.7881 151.858 83.8449C151.927 84.0434 151.996 84.242 152.051 84.4406C152.19 84.9086 152.3 85.3767 152.383 85.8447C152.383 85.8589 152.397 85.9865 152.425 86.0575C152.425 86.1284 152.439 86.256 152.439 86.2702C152.452 86.483 152.48 86.6957 152.48 86.9085C152.494 87.3765 152.494 87.8588 152.452 88.3268C152.439 88.5396 152.425 88.7523 152.397 88.9651C152.397 88.9651 152.328 89.4047 152.328 89.4473C152.245 89.9012 152.134 90.3692 151.996 90.8089C151.553 92.2982 150.71 93.9576 149.728 95.1916C147.529 97.9431 144.445 99.9146 140.96 100.369C133.588 101.347 126.355 95.7731 124.295 88.6247C121.999 80.6394 125.304 72.0159 131.666 67.0801C138.042 62.1301 146.561 60.7827 154.195 63.0237C161.801 65.2646 168.44 70.7252 172.008 77.9871C175.645 85.3909 176.115 94.1845 173.653 102.028C171.344 109.361 166.31 115.828 159.976 119.984C152.535 124.849 143.587 126.282 134.888 125.955C126.895 125.657 118.348 124.211 111.558 119.615C110.479 118.892 109.455 118.084 108.501 117.204C111.544 113.573 113.231 108.907 112.567 104.099C111.972 99.7019 109.372 95.3192 105.403 93.3477C101.642 91.4755 96.7735 91.3762 93.3022 93.986C90.0246 96.4397 88.4894 100.837 89.1948 104.893C89.9692 109.318 94.1182 112.651 98.5299 112.098C100.729 111.814 102.762 110.552 103.716 108.439C104.574 106.552 104.822 104.014 103.716 102.17C103.191 101.305 102.458 100.553 101.572 100.071C99.9405 99.1771 98.5991 101.56 100.134 102.595C100.203 102.638 100.231 102.666 100.259 102.68C100.314 102.723 100.355 102.765 100.411 102.808C100.452 102.851 100.66 103.092 100.674 103.092C100.757 103.234 100.839 103.375 100.909 103.517C100.922 103.546 100.936 103.56 100.936 103.574C101.005 103.744 101.075 103.914 101.144 104.085C101.144 104.099 101.213 104.34 101.227 104.397C101.282 104.581 101.31 104.765 101.351 104.95V104.978C101.351 105.077 101.365 105.177 101.365 105.276C101.365 105.503 101.351 105.716 101.351 105.943V105.999C101.337 106.084 101.324 106.184 101.296 106.269C101.254 106.467 101.213 106.652 101.144 106.85C101.116 106.935 101.088 107.021 101.061 107.106C101.047 107.134 101.033 107.162 101.033 107.177C100.936 107.403 100.812 107.616 100.687 107.815C100.674 107.829 100.618 107.9 100.604 107.928C100.577 107.957 100.549 107.999 100.521 108.042C100.397 108.184 100.259 108.325 100.106 108.453C100.093 108.481 100.065 108.496 100.065 108.496C100.065 108.496 100.051 108.496 100.051 108.51C99.9544 108.581 99.8576 108.637 99.7607 108.708C99.5533 108.836 99.332 108.978 99.0969 109.063C97.7001 109.644 95.8331 109.432 94.3948 108.623C92.9288 107.815 91.8086 106.425 91.2692 104.808C90.1352 101.489 91.1033 97.4325 93.7863 95.1632C96.8427 92.596 101.393 92.5251 104.795 94.3973C106.537 95.3618 107.948 96.8085 108.944 98.553C109.912 100.255 110.368 102.34 110.451 104.297C110.617 108.354 109.179 112.226 106.51 115.233C106.385 115.375 106.247 115.502 106.122 115.63C105.86 115.743 105.638 115.97 105.528 116.24C102.776 118.906 99.3597 120.651 95.6256 121.431C91.2416 122.353 86.6363 121.998 82.3352 120.821C78.4352 119.743 74.715 117.956 71.382 115.601C68.049 113.261 65.1447 110.269 62.6 107.063C62.0607 106.382 61.5351 105.701 61.0096 105.021C63.5958 103.503 65.9745 101.588 67.8139 99.1629C70.0266 96.2269 71.1883 92.5818 71.0777 88.8658C70.9671 85.0646 69.5979 81.3911 67.1086 78.5686C64.6192 75.7461 61.1064 74.0158 57.4 73.7605C53.8596 73.5194 50.2085 74.9944 47.7192 77.5474C45.1745 80.1714 43.9713 83.9158 44.5245 87.5751C45.0362 90.9933 47.2213 94.0285 50.3053 95.4327C53.2234 96.7659 56.7639 96.7234 59.3777 94.681C61.8256 92.7662 63.333 89.4757 62.7245 86.3128C62.4341 84.7526 61.6596 83.0364 60.1936 82.3131C59.5436 81.9868 58.7553 81.7032 58.0224 81.689C57.2202 81.689 56.5149 82.001 55.9756 82.6251C54.966 83.8165 54.9245 85.788 56.1415 86.8659C57.1511 87.7595 58.6447 86.2419 57.6213 85.3483C56.667 84.5115 57.5521 83.1641 58.5064 82.8378C60.2075 82.2563 61.5628 84.2987 61.8117 85.788C62.3096 88.7239 60.8022 91.7592 58.4096 93.3619C56.0724 94.9363 53.1681 94.9788 50.7064 93.6456C48.0234 92.1989 46.4883 89.5182 46.4745 86.4121C46.4606 83.3484 47.8436 80.4692 50.3468 78.7388C52.7117 77.1077 55.6575 76.5546 58.2851 77.1361C59.8479 77.4907 61.0926 78.0722 62.4341 78.98C63.5128 79.7175 64.6883 80.838 65.4075 81.8734C67.1639 84.3697 67.9798 87.2772 67.8692 90.3267C67.7724 93.1775 66.666 96.0142 64.7713 98.2694C62.7245 100.723 60.0968 102.524 57.317 103.971C51.1628 107.162 44.1649 108.637 37.2915 108.368C24.167 107.872 11.6233 100.567 4.70842 89.0927C1.085 83.0931 -0.892659 75.9305 0.393514 68.8956C1.01586 65.5057 2.35735 62.1868 4.52863 59.5345C5.52438 58.3148 6.69991 57.2226 7.97225 56.2865C9.14779 55.5206 10.4063 54.8824 11.7201 54.5136C12.6882 54.2441 13.6425 54.1307 14.6244 54.1449C13.4074 54.7973 12.2872 55.7334 11.4435 56.7262C9.8946 58.5417 9.02332 60.8536 9.00949 63.279C8.968 68.4701 12.5223 72.9378 17.2797 74.4555C22.3138 76.044 27.5 74.2853 31.7319 71.406C36.2266 68.3566 39.8085 64.1158 44.2617 61.0238C48.6043 58.0027 54.5372 56.0596 59.4883 58.5559C59.6404 58.7261 59.7926 58.8821 59.9447 59.0523C62.9596 62.1726 67.0809 64.1725 71.3681 64.3711C75.9735 64.5838 80.6894 62.584 83.5522 58.8254C86.249 55.2795 86.9129 49.8898 85.0182 45.8192C83.3171 42.1599 79.1958 39.4083 75.199 39.692C73.1107 39.8338 71.0224 40.7132 69.6118 42.3301C68.2564 43.8761 67.6479 46.0036 67.9937 48.0602C68.1596 49.0672 68.5745 49.9749 69.1969 50.7692C69.5426 51.2231 70.3309 50.6132 69.9852 50.1451C68.8096 48.5566 68.6575 46.3724 69.4873 44.5711C70.3171 42.7698 72.0458 41.6067 73.899 41.1671C77.5777 40.2877 81.3256 42.401 83.0543 45.7341C84.866 49.2232 84.3682 53.4924 81.9894 56.5702C79.6107 59.648 75.932 61.4351 72.1011 61.4493C64.9788 61.4777 58.5479 55.393 57.7873 48.0602C56.9851 40.1033 61.5905 32.3166 68.8649 29.409C72.516 27.9481 76.5128 27.6077 80.3575 28.4587C84.3405 29.3523 87.9916 31.4231 90.9235 34.3165C91.0895 34.4867 91.2554 34.6569 91.4214 34.8129C93.0256 37.6638 95.1831 40.1742 97.8522 42.0322C102.9 45.5355 109.594 46.4007 115.084 43.4789C119.98 40.8692 123.396 35.4937 122.967 29.7494C122.76 26.9837 121.778 24.3172 119.994 22.2181C118.224 20.1331 115.72 18.9275 113.065 18.5871C110.548 18.2751 107.865 18.814 105.777 20.3175C103.564 21.9202 101.932 24.5725 102.167 27.4375C102.375 30.104 104.076 32.5577 106.759 32.9974C109.248 33.4087 111.627 31.8628 111.972 29.2388C112.138 28.0049 111.779 27.012 111.032 26.0617C110.686 25.6221 110.092 26.2461 110.437 26.6716C111.101 27.5226 111.115 28.9268 110.755 29.9054C110.327 31.0685 109.359 31.8628 108.169 32.1039C105.417 32.6428 103.204 30.3168 103.011 27.6077C102.831 24.9413 104.615 22.4875 106.772 21.2252C108.736 20.0764 111.143 19.8211 113.328 20.3317C115.513 20.8423 117.56 22.0904 118.901 23.9626C120.284 25.8774 120.962 28.2744 120.948 30.6572C120.934 32.9974 120.215 35.3944 118.791 37.2524C117.366 39.0821 115.43 40.5004 113.314 41.3373C108.557 43.2095 103.177 42.0606 99.0693 39.0537C94.8927 36.0043 92.2927 30.9834 91.3384 25.8916C90.4395 21.1259 91.0756 15.8639 93.2607 11.5096C95.5427 6.97091 99.3044 3.63782 104.007 1.94999C108.792 0.233804 114.005 0.162887 118.929 1.34011C124.378 2.6308 129.412 5.28309 134.142 8.27578C134.183 8.28997 134.211 8.31833 134.238 8.3467C134.64 8.74383 134.93 9.21189 135.303 9.63739C135.691 10.0629 136.161 10.4175 136.548 10.8146C136.949 11.2259 137.281 11.694 137.641 12.1478C137.82 12.3748 138.208 12.4599 138.484 12.3748C139.203 12.1337 139.84 11.5238 140.462 11.0841C141.098 10.6302 141.762 10.1905 142.412 9.76504C143.74 8.89985 145.081 8.0914 146.464 7.33968C149.202 5.85042 152.065 4.60229 155.039 3.70873C160.487 2.09183 166.241 1.80816 171.731 3.46762C176.668 4.94269 181.343 7.96375 184.15 12.4599C187.027 17.0695 187.732 22.7996 186.584 28.1042C185.395 33.5789 182.477 38.5431 178.273 42.1457C174.027 45.7767 168.55 47.8332 163.046 47.2801C162.534 47.2234 161.912 47.1241 161.276 46.9822C160.626 46.8262 159.976 46.6418 159.326 46.4291C158.136 46.0178 157.044 45.4788 155.91 44.7555C153.78 43.3797 152.079 41.5358 150.931 39.1672C150.779 38.841 150.654 38.5715 150.599 38.4155C150.489 38.1318 150.392 37.8481 150.295 37.5645C150.087 36.9262 149.935 36.288 149.811 35.6355C149.783 35.4795 149.756 35.3377 149.742 35.1817C149.742 35.1391 149.7 34.8271 149.7 34.8271C149.673 34.5292 149.645 34.2314 149.645 33.9193C149.617 33.2669 149.631 32.6003 149.673 31.9337C149.728 31.3663 149.783 30.955 149.949 30.2458C150.101 29.6076 150.295 28.9835 150.53 28.3736C150.876 27.4801 151.636 26.232 152.3 25.4377C153.794 23.6364 155.744 22.4734 158.04 21.9486C160.211 21.438 162.617 21.6082 164.636 22.601C166.96 23.7215 168.827 25.9483 169.173 28.6006C169.505 31.1252 168.163 33.4371 165.674 34.0044C164.678 34.2314 163.585 34.0612 162.756 33.4371C161.912 32.7847 161.096 34.2456 161.926 34.8838C164.069 36.5291 167.015 35.8767 168.882 34.0895C171.081 31.9762 171.206 28.6573 170.058 25.9483C167.72 20.4593 161.497 18.4169 156.103 19.7927C153.324 20.5019 150.807 22.1329 149.092 24.5016C147.322 26.9269 146.423 30.0047 146.34 33.0258C146.257 36.0752 147.017 39.2381 148.566 41.8479C150.157 44.5427 152.535 46.7269 155.232 48.202C157.97 49.6913 161.055 50.5139 164.152 50.599C167.375 50.6841 170.542 49.8615 173.46 48.4999C175.922 47.351 178.19 45.7767 180.195 43.8903C180.596 43.7626 181.011 43.6633 181.412 43.5782C183.39 43.1811 185.533 43.252 187.497 43.6633C191.771 44.5569 195.38 47.2234 198.284 50.4855C204.826 57.8467 207.772 67.7751 214.438 75.0512C220.91 82.1145 230.204 86.1993 239.636 86.2277C244.697 86.2419 249.717 85.1497 254.323 82.9797C258.679 80.9373 262.911 77.8595 264.806 73.1931C266.576 68.853 265.636 63.5343 261.708 60.7969C259.993 59.5913 257.697 59.0949 255.692 59.7898C254.835 60.0877 254.06 60.5699 253.382 61.1798C253.714 60.3997 254.115 59.6764 254.586 59.0098C256.217 56.6837 258.79 55.237 261.57 55.0242C264.571 54.7973 267.572 55.8043 269.964 57.6481C272.44 59.5487 274.155 62.3854 275.095 65.3781C277.308 72.257 275.151 79.6608 271.983 85.8164Z" fill="url(#paint0_linear)"/>
<defs>
<linearGradient id="paint0_linear" x1="9.67045" y1="63.2722" x2="250.386" y2="63.2722" gradientUnits="userSpaceOnUse">
<stop stop-color="#F7F7F7"/>
<stop offset="1" stop-color="#999999"/>
</linearGradient>
</defs>
</svg>
