<svg width="220" height="100" viewBox="0 0 220 100" fill="none" xmlns="http://www.w3.org/2000/svg">
<path d="M216.798 67.97C214.539 72.3679 211.54 76.3248 208.012 79.7278C200.902 86.5677 191.455 91.1917 181.677 91.8926C176.319 92.277 170.708 91.4517 166.001 88.6479C163.906 87.393 161.999 85.7198 160.754 83.5604C159.53 81.4463 158.913 78.8347 159.42 76.404C159.905 74.0863 161.404 72.0965 163.51 71.1129C165.593 70.1407 167.952 70.4911 169.562 72.1983C170.962 73.6906 171.678 76.0309 170.587 77.9189C169.672 79.5017 167.842 80.2479 166.1 80.1122C165.373 80.0557 164.358 79.7617 163.84 79.1964C163.421 78.7329 162.749 79.4226 163.168 79.8861C163.521 80.2818 163.818 80.6662 164.27 80.9601C164.678 81.2314 165.174 81.3897 165.637 81.4802C166.651 81.6837 167.732 81.548 168.691 81.1749C170.785 80.3496 172.251 78.4842 172.196 76.1213C172.141 73.7132 170.741 71.5086 168.757 70.2763C166.574 68.931 163.785 69.1571 161.602 70.3555C159.155 71.7008 157.535 74.1541 157.127 76.9466C156.675 79.9765 157.469 83.1195 159.177 85.6293C160.037 86.8956 161.062 87.9922 162.198 88.9645C161.977 89.1906 161.779 89.4393 161.547 89.6767C161.195 90.0611 160.831 90.4342 160.445 90.7847C159.75 91.4291 159.012 92.0057 158.229 92.537C156.576 93.645 154.779 94.4816 152.883 95.013C148.969 96.1096 144.824 95.8835 141.01 94.5268C138.982 93.8146 137.13 92.571 135.531 91.1012C137.141 89.1228 138.497 86.9182 139.522 84.5779C140.988 81.2315 141.782 77.6815 141.837 74.0072C141.881 70.3781 141.253 66.7264 139.919 63.3573C138.596 60.0108 136.667 56.9357 134.12 54.4259C131.618 51.9613 128.619 50.0732 125.367 48.8635C118.918 46.4441 111.499 46.9529 105.635 50.729C102.713 52.617 100.266 55.2625 98.778 58.4733C97.3008 61.6728 96.6504 65.268 97.1354 68.784C98.0614 75.6352 103.717 81.2767 110.496 81.7967C117.011 82.2829 123.405 76.9805 124.166 70.2989C124.552 66.8394 123.229 63.1877 120.462 61.1188C119.205 60.1804 117.618 59.7056 116.063 59.8752C114.454 60.0561 113.098 60.7909 111.973 61.865C110.904 62.8938 110.342 64.2278 110.276 65.7089C110.232 66.9073 112.04 66.9073 112.084 65.7089C112.106 65.1436 112.326 64.6235 112.635 64.1487C112.767 63.9452 112.899 63.7982 113.087 63.606C113.197 63.493 113.318 63.3799 113.44 63.2782C113.473 63.2442 113.616 63.1199 113.594 63.1199C114.156 62.7581 114.718 62.6224 115.402 62.4755C115.479 62.4642 115.688 62.4189 115.733 62.4076C115.766 62.4076 115.997 62.385 116.063 62.385C116.229 62.3737 116.394 62.3737 116.559 62.385C116.636 62.385 116.725 62.3963 116.802 62.3963C116.824 62.3963 116.846 62.3963 116.857 62.3963C116.857 62.3963 116.868 62.3963 116.89 62.4076C117.188 62.4642 117.485 62.532 117.772 62.6451C117.783 62.6451 117.816 62.6677 117.849 62.679C117.904 62.7016 117.959 62.7355 118.014 62.7581C118.191 62.8485 118.378 62.9503 118.555 63.0634C119.051 63.3799 119.492 63.7756 119.955 64.3748C119.966 64.3861 119.966 64.3861 119.966 64.3861C119.966 64.3974 119.977 64.4087 119.988 64.42C120.032 64.4766 120.065 64.5331 120.109 64.5896C120.208 64.7479 120.307 64.9062 120.407 65.0644C120.594 65.381 120.759 65.7089 120.914 66.0367C120.914 66.048 121.035 66.3533 121.046 66.3985C121.101 66.5568 121.156 66.7151 121.2 66.8733C121.311 67.2464 121.399 67.6195 121.465 67.9926C121.465 68.0039 121.476 68.1057 121.498 68.1622C121.498 68.2187 121.509 68.3205 121.509 68.3318C121.52 68.5014 121.542 68.6709 121.542 68.8405C121.553 69.2136 121.553 69.598 121.52 69.9711C121.509 70.1407 121.498 70.3102 121.476 70.4798C121.476 70.4798 121.421 70.8303 121.421 70.8642C121.355 71.226 121.266 71.5991 121.156 71.9496C120.803 73.1366 120.131 74.4594 119.348 75.443C117.596 77.6363 115.137 79.2077 112.359 79.5695C106.484 80.3496 100.718 75.9065 99.0756 70.2085C97.2457 63.8434 99.8803 56.9696 104.951 53.0353C110.033 49.0896 116.824 48.0156 122.909 49.8019C128.972 51.5882 134.263 55.9408 137.108 61.7293C140.007 67.6308 140.382 74.6403 138.419 80.8923C136.578 86.7373 132.566 91.8926 127.517 95.2052C121.586 99.083 114.454 100.225 107.52 99.9648C101.148 99.7274 94.3354 98.5742 88.9227 94.9112C88.0629 94.3346 87.2471 93.6902 86.4865 92.9893C88.9117 90.095 90.2566 86.3755 89.7275 82.5429C89.2534 79.0382 87.181 75.5447 84.0171 73.9733C81.0187 72.4809 77.1383 72.4018 74.3713 74.482C71.7587 76.4379 70.5351 79.9426 71.0973 83.176C71.7146 86.7034 75.0217 89.3602 78.5383 88.9193C80.2911 88.6931 81.9116 87.6869 82.6722 86.0024C83.3557 84.4988 83.5541 82.4751 82.6722 81.0053C82.2533 80.3157 81.6691 79.7165 80.9636 79.3321C79.6628 78.6199 78.5935 80.5192 79.8171 81.3445C79.8722 81.3784 79.8942 81.401 79.9163 81.4123C79.9604 81.4463 79.9935 81.4802 80.0376 81.5141C80.0706 81.548 80.236 81.7402 80.247 81.7402C80.3132 81.8533 80.3793 81.9663 80.4344 82.0794C80.4454 82.102 80.4565 82.1133 80.4565 82.1246C80.5116 82.2603 80.5667 82.3959 80.6218 82.5316C80.6218 82.5429 80.6769 82.7351 80.688 82.7803C80.7321 82.9273 80.7541 83.0743 80.7872 83.2212V83.2439C80.7872 83.323 80.7982 83.4021 80.7982 83.4813C80.7982 83.6622 80.7872 83.8317 80.7872 84.0126V84.0578C80.7762 84.1257 80.7651 84.2048 80.7431 84.2727C80.71 84.4309 80.6769 84.5779 80.6218 84.7362C80.5998 84.804 80.5777 84.8719 80.5557 84.9397C80.5447 84.9623 80.5336 84.9849 80.5336 84.9962C80.4565 85.1771 80.3573 85.3467 80.258 85.505C80.247 85.5163 80.2029 85.5728 80.1919 85.5954C80.1698 85.618 80.1478 85.6519 80.1258 85.6859C80.0265 85.7989 79.9163 85.912 79.795 86.0137C79.784 86.0363 79.762 86.0476 79.762 86.0476C79.762 86.0476 79.7509 86.0476 79.7509 86.0589C79.6738 86.1155 79.5966 86.1607 79.5194 86.2172C79.3541 86.319 79.1777 86.432 78.9903 86.4999C77.8769 86.9634 76.3887 86.7938 75.2422 86.1494C74.0737 85.505 73.1808 84.397 72.7508 83.1082C71.8469 80.4627 72.6186 77.2293 74.7572 75.4204C77.1934 73.3741 80.8202 73.3175 83.5321 74.8099C84.9211 75.5787 86.0455 76.7318 86.8392 78.1224C87.6109 79.4791 87.9747 81.141 88.0408 82.7012C88.1731 85.9346 87.0266 89.021 84.899 91.4178C84.7998 91.5308 84.6896 91.6326 84.5904 91.7343C84.3809 91.8248 84.2046 92.0057 84.1164 92.2205C81.9226 94.3459 79.1998 95.7365 76.2233 96.3583C72.7288 97.0932 69.0579 96.8106 65.6295 95.8722C62.5208 95.013 59.5554 93.5885 56.8987 91.7117C54.2419 89.8463 51.927 87.4608 49.8986 84.9058C49.4687 84.3631 49.0498 83.8204 48.6308 83.2778C50.6923 82.0681 52.5884 80.5418 54.0545 78.6085C55.8183 76.2683 56.7443 73.3628 56.6561 70.4007C56.568 67.3708 55.4766 64.4426 53.4923 62.1928C51.508 59.943 48.708 58.5637 45.7536 58.3602C42.9316 58.168 40.0213 59.3438 38.037 61.3788C36.0086 63.4704 35.0496 66.455 35.4905 69.3719C35.8984 72.0965 37.6401 74.5159 40.0984 75.6352C42.4245 76.6979 45.2465 76.664 47.33 75.036C49.2812 73.5097 50.4828 70.8868 49.9978 68.3657C49.7663 67.1221 49.149 65.7541 47.9804 65.1775C47.4623 64.9175 46.834 64.6914 46.2497 64.6801C45.6103 64.6801 45.0481 64.9288 44.6182 65.4262C43.8135 66.3759 43.7804 67.9474 44.7505 68.8066C45.5552 69.5189 46.7458 68.3092 45.93 67.5969C45.1694 66.9299 45.8749 65.8558 46.6355 65.5958C47.9915 65.1323 49.0718 66.7603 49.2702 67.9474C49.6671 70.2876 48.4655 72.707 46.5584 73.9846C44.6954 75.2395 42.3804 75.2734 40.4181 74.2107C38.2795 73.0575 37.0559 70.9207 37.0449 68.4448C37.0338 66.0028 38.1362 63.7078 40.1315 62.3285C42.0166 61.0283 44.3646 60.5874 46.4592 61.051C47.7048 61.3336 48.697 61.7971 49.7663 62.5207C50.6261 63.1086 51.5632 64.0017 52.1364 64.827C53.5364 66.8168 54.1868 69.1345 54.0986 71.5652C54.0215 73.8376 53.1396 76.0987 51.6293 77.8963C49.9978 79.8522 47.9033 81.288 45.6875 82.4412C40.7819 84.9849 35.2039 86.1607 29.7251 85.9459C19.2635 85.5502 9.26497 79.7278 3.75309 70.5816C0.864859 65.7993 -0.71154 60.09 0.31367 54.4824C0.80974 51.7804 1.87905 49.1349 3.60978 47.0207C4.40349 46.0484 5.34051 45.1779 6.3547 44.4317C7.29172 43.8212 8.29488 43.3125 9.34214 43.0185C10.1138 42.8037 10.8744 42.7133 11.6571 42.7246C10.687 43.2446 9.79411 43.9908 9.12166 44.7822C7.887 46.2293 7.1925 48.0721 7.18148 50.0054C7.14841 54.1432 9.98151 57.7045 13.7737 58.9142C17.7863 60.1804 21.9203 58.7785 25.2935 56.4835C28.8763 54.0528 31.7314 50.6724 35.2811 48.2078C38.7425 45.7997 43.4717 44.2508 47.4182 46.2406C47.5395 46.3763 47.6608 46.5007 47.782 46.6363C50.1852 49.1236 53.4703 50.7176 56.8876 50.8759C60.5586 51.0455 64.3177 49.4514 66.5996 46.4554C68.7492 43.629 69.2784 39.3329 67.7681 36.0882C66.4122 33.1714 63.1271 30.9781 59.9412 31.2042C58.2766 31.3172 56.6121 32.0182 55.4876 33.307C54.4073 34.5393 53.9223 36.2352 54.1978 37.8745C54.3301 38.6772 54.6608 39.4007 55.1569 40.0339C55.4325 40.3956 56.0609 39.9095 55.7853 39.5364C54.8482 38.2702 54.727 36.5291 55.3884 35.0933C56.0498 33.6575 57.4278 32.7304 58.905 32.38C61.8373 31.679 64.8248 33.3636 66.2027 36.0204C67.6468 38.8015 67.25 42.2045 65.3539 44.6578C63.4578 47.1112 60.5255 48.5357 57.4719 48.547C51.7947 48.5696 46.6686 43.7195 46.0623 37.8745C45.4229 31.532 49.0938 25.3253 54.8923 23.0076C57.8026 21.8431 60.9885 21.5718 64.0531 22.2501C67.2279 22.9624 70.1382 24.613 72.4753 26.9194C72.6075 27.055 72.7398 27.1907 72.8721 27.3151C74.1509 29.5875 75.8706 31.5886 77.9982 33.0696C82.0218 35.8621 87.3573 36.5517 91.7338 34.2228C95.6362 32.1425 98.3591 27.8577 98.0173 23.279C97.852 21.0744 97.0693 18.9489 95.6472 17.2757C94.2362 15.6138 92.2409 14.6528 90.1243 14.3815C88.118 14.1327 85.9794 14.5623 84.3148 15.7607C82.551 17.0383 81.2502 19.1524 81.4376 21.4361C81.6029 23.5616 82.9589 25.5175 85.0975 25.8679C87.0817 26.1958 88.9778 24.9635 89.2534 22.872C89.3857 21.8884 89.0991 21.097 88.5038 20.3395C88.2282 19.989 87.7542 20.4865 88.0298 20.8256C88.5589 21.504 88.57 22.6232 88.2833 23.4033C87.9416 24.3304 87.1699 24.9635 86.2219 25.1557C84.0282 25.5853 82.2644 23.7312 82.11 21.5718C81.9667 19.4464 83.3888 17.4905 85.1085 16.4843C86.6739 15.5685 88.592 15.365 90.3338 15.772C92.0755 16.179 93.707 17.1739 94.7763 18.6663C95.8787 20.1925 96.4189 22.1032 96.4079 24.0025C96.3968 25.8679 95.8236 27.7786 94.6881 29.2596C93.5527 30.718 92.0094 31.8486 90.3227 32.5156C86.5306 34.008 82.2423 33.0922 78.9683 30.6954C75.6391 28.2647 73.5666 24.2625 72.806 20.2038C72.0894 16.4052 72.5965 12.2108 74.3383 8.73996C76.1572 5.12217 79.1557 2.46535 82.9037 1.11998C86.718 -0.247993 90.8739 -0.304521 94.7984 0.633844C99.1417 1.66265 103.154 3.7768 106.925 6.16228C106.958 6.17359 106.98 6.1962 107.002 6.21881C107.321 6.53537 107.553 6.90845 107.851 7.24762C108.159 7.58679 108.534 7.86943 108.843 8.18598C109.162 8.51385 109.427 8.88693 109.714 9.24871C109.857 9.4296 110.166 9.49743 110.386 9.4296C110.959 9.2374 111.466 8.75126 111.962 8.40079C112.469 8.03901 112.999 7.68854 113.517 7.34937C114.575 6.65973 115.644 6.01531 116.747 5.41611C118.929 4.22902 121.211 3.23413 123.581 2.52188C127.925 1.23304 132.511 1.00693 136.887 2.32968C140.823 3.50547 144.549 5.91356 146.786 9.49743C149.079 13.1718 149.642 17.7392 148.727 21.9675C147.779 26.3315 145.453 30.2884 142.101 33.16C138.717 36.0543 134.352 37.6936 129.964 37.2527C129.556 37.2075 129.06 37.1283 128.553 37.0153C128.035 36.8909 127.517 36.7439 126.999 36.5743C126.051 36.2465 125.18 35.8169 124.276 35.2403C122.578 34.1436 121.222 32.6739 120.307 30.7859C120.186 30.5258 120.087 30.311 120.043 30.1867C119.955 29.9606 119.877 29.7345 119.8 29.5083C119.635 28.9996 119.514 28.4908 119.414 27.9708C119.392 27.8464 119.37 27.7334 119.359 27.609C119.359 27.5751 119.326 27.3264 119.326 27.3264C119.304 27.0889 119.282 26.8515 119.282 26.6028C119.26 26.0827 119.271 25.5514 119.304 25.02C119.348 24.5678 119.392 24.2399 119.525 23.6747C119.646 23.1659 119.8 22.6685 119.988 22.1823C120.263 21.4701 120.87 20.4752 121.399 19.8421C122.589 18.4062 124.144 17.4792 125.974 17.0609C127.704 16.6539 129.622 16.7895 131.232 17.5809C133.084 18.4741 134.572 20.2491 134.848 22.3632C135.112 24.3756 134.043 26.2184 132.059 26.6706C131.265 26.8515 130.394 26.7159 129.733 26.2184C129.06 25.6984 128.41 26.8628 129.071 27.3716C130.78 28.683 133.128 28.163 134.616 26.7385C136.369 25.0539 136.468 22.4084 135.553 20.2491C133.69 15.8738 128.73 14.2458 124.43 15.3424C122.215 15.9077 120.208 17.2079 118.841 19.0959C117.43 21.0291 116.714 23.4825 116.647 25.8906C116.581 28.3213 117.188 30.8424 118.422 32.9226C119.69 35.0707 121.586 36.8118 123.736 37.9875C125.918 39.1746 128.377 39.8304 130.846 39.8982C133.415 39.966 135.939 39.3103 138.265 38.225C140.227 37.3092 142.035 36.0543 143.634 34.5506C143.953 34.4489 144.284 34.3698 144.604 34.3019C146.18 33.9854 147.889 34.0419 149.454 34.3697C152.861 35.082 155.738 37.2075 158.053 39.8077C163.267 45.6753 165.615 53.5893 170.929 59.389C176.088 65.0192 183.496 68.2752 191.014 68.2979C195.049 68.3092 199.05 67.4386 202.721 65.7089C206.194 64.0809 209.567 61.6275 211.077 57.908C212.488 54.4485 211.739 50.2089 208.608 48.0269C207.241 47.0659 205.411 46.6702 203.812 47.2242C203.129 47.4616 202.512 47.846 201.971 48.3322C202.236 47.7104 202.556 47.1338 202.931 46.6024C204.231 44.7483 206.282 43.5951 208.498 43.4255C210.89 43.2446 213.282 44.0473 215.189 45.5171C217.162 47.032 218.529 49.2931 219.279 51.6786C221.043 57.1618 219.323 63.0634 216.798 67.97Z" fill="url(#paint0_linear)"/>
<defs>
<linearGradient id="paint0_linear" x1="0.00500487" y1="50.0216" x2="220.018" y2="50.0216" gradientUnits="userSpaceOnUse">
<stop stop-color="#A06D25"/>
<stop offset="0.1443" stop-color="#DFA843"/>
<stop offset="0.269" stop-color="#F2D65A"/>
<stop offset="0.4133" stop-color="#DFA843"/>
<stop offset="0.532" stop-color="#CE8B23"/>
<stop offset="0.6458" stop-color="#F2D65A"/>
<stop offset="0.7704" stop-color="#DFA843"/>
<stop offset="0.8704" stop-color="#A06D25"/>
<stop offset="1" stop-color="#DFA843"/>
</linearGradient>
</defs>
</svg>
