<svg width="220" height="100" viewBox="0 0 220 100" fill="none" xmlns="http://www.w3.org/2000/svg">
<path d="M4.75923 70.742C7.50002 75.2162 11.0498 79.1969 15.161 82.4703C19.3217 85.7849 23.9942 88.3921 29.03 90.1193C34.5693 92.0192 40.5874 92.8992 46.4157 92.1261C50.015 91.6491 53.7052 90.4976 56.8092 88.5072C57.0568 88.9102 57.3953 89.2557 57.742 89.6011C58.1713 90.037 58.6171 90.4483 59.0876 90.843C60.0205 91.6162 61.0111 92.3317 62.0596 92.9403C65.8653 95.1445 70.3149 96.1233 74.682 95.4818C76.8284 95.1692 78.884 94.4783 80.7992 93.4667C82.5824 92.5209 84.2499 91.4846 85.7359 90.144C88.2703 92.9403 91.366 95.2515 94.7755 96.8306C101.809 100.096 109.817 100.507 117.42 99.5447C123.677 98.747 130.207 96.8635 134.806 92.3893C140.361 97.5544 149.129 97.8587 156.071 95.6051C159.563 94.4701 162.775 92.6772 165.606 90.3496C167.01 89.1981 168.298 87.9233 169.42 86.4922C170.46 85.1763 171.286 83.7781 171.963 82.2565C172.136 82.347 172.31 82.4457 172.491 82.5361C178.006 85.2667 184.288 86.4346 190.422 85.9C196.184 85.4066 201.74 83.408 206.511 80.151C211.168 76.9351 215.213 72.5596 217.673 67.4686C220.224 62.2048 220.917 55.9622 218.54 50.5011C217.623 48.3873 216.212 46.4874 214.478 44.9823C214.065 44.5382 213.611 44.1352 213.099 43.7815C212.257 43.2058 211.333 42.7534 210.392 42.3751C209.417 41.9803 208.377 41.6513 207.345 41.4375C206.842 41.3306 206.346 41.273 205.826 41.2812C205.24 41.2812 204.563 41.2401 204.134 41.7007C203.829 42.0379 203.862 42.5889 204.274 42.8192C204.547 42.9755 204.811 42.9919 205.083 42.9673C205.141 43.1893 205.29 43.3703 205.554 43.4196C206.52 43.5924 207.453 43.7486 208.286 44.3161C209.054 44.8343 209.698 45.5745 210.16 46.3723C211.201 48.1324 211.275 50.2379 210.631 52.146C209.426 55.6744 205.694 57.8375 202.037 57.7634C197.959 57.6894 194.36 55.1809 191.338 52.6806C188.308 50.1721 185.403 47.2688 181.737 45.6814C179.087 44.53 175.958 44.0529 173.218 45.007C174.885 42.7452 175.81 40.0064 175.892 37.1689C176 33.6405 174.778 30.071 172.516 27.3486C170.32 24.7003 167.134 22.8991 163.807 22.0684C158.3 20.7031 152.282 22.348 148.022 26.0162C148.65 24.5769 149.104 23.0554 149.368 21.5091C150.119 17.0925 149.442 12.3222 147.131 8.44012C144.795 4.50873 140.923 1.81104 136.514 0.676033C132.007 -0.491867 127.252 -0.08886 122.885 1.44093C120.565 2.25517 118.369 3.39017 116.289 4.6979C114.44 5.85757 112.731 7.26399 111.072 8.68686C111.014 8.72798 110.956 8.7691 110.898 8.81023C110.675 8.95827 110.428 9.08986 110.188 9.20501C109.841 8.90892 109.429 8.67041 109.065 8.42367C108.537 8.06178 108.001 7.6999 107.456 7.35446C102.948 4.49228 97.9373 2.33741 92.5961 1.71234C87.9483 1.16951 83.1355 1.99198 79.0243 4.24553C75.0039 6.44152 71.8422 10.0686 70.6038 14.5017C69.349 19.0335 70.0425 23.993 72.0155 28.2122C72.8906 30.0792 74.0711 31.8393 75.4662 33.3938C73.6666 33.0401 71.7679 33.1306 70.0012 33.5418C66.7321 34.3067 63.9005 36.2971 61.5973 38.674C56.5533 43.8966 54.0106 50.937 49.1317 56.283C44.5748 61.2836 38.0861 64.4583 31.3002 64.7955C27.6513 64.9765 24.0602 64.3761 20.6343 63.1177C17.5633 61.9991 14.2364 60.2144 12.4945 57.344C10.9012 54.7203 10.7114 51.0028 13.5925 49.1769C14.773 48.4202 16.2342 48.2393 17.4807 48.963C18.6447 49.6375 19.5446 50.9781 19.2804 52.3598C19.107 53.2892 20.5187 53.6922 20.7168 52.7546C20.7664 52.549 20.7911 52.3352 20.8077 52.1213C21.0718 51.2002 21.1709 50.1967 21.014 49.2591C20.6013 46.8575 19.0823 44.7273 17.0515 43.4032C14.8721 41.9885 12.123 41.7253 9.62992 42.334C7.07901 42.959 4.77575 44.4395 3.1577 46.4956C1.43233 48.6834 0.499485 51.3564 0.144505 54.0952C-0.614987 60.0005 1.72127 65.7907 4.75923 70.742ZM1.92766 51.3646C2.67064 49.0617 4.01627 46.8904 5.98104 45.4264C7.87151 44.0118 10.2325 43.2387 12.6101 43.4114C14.806 43.5677 16.8451 44.678 18.1329 46.471C18.4961 46.9809 18.8264 47.5484 19.0823 48.1406C18.5457 47.6718 17.9348 47.3017 17.2578 47.0714C15.6728 46.5285 13.8649 46.9233 12.5028 47.8363C9.39876 49.9335 8.66404 54.013 10.0592 57.344C11.5617 60.9299 14.9051 63.2904 18.3476 64.8531C21.9799 66.5145 25.9507 67.3534 29.9545 67.3452C37.4091 67.3287 44.7481 64.1869 49.8664 58.7751C55.1416 53.1823 57.4613 45.5663 62.6292 39.9159C64.9242 37.4074 67.764 35.3677 71.1487 34.6768C72.709 34.356 74.3931 34.3067 75.9616 34.611C76.2835 34.6768 76.6055 34.7508 76.9274 34.8495C78.5125 36.2971 80.3121 37.5061 82.2521 38.3861C84.5554 39.4224 87.065 40.064 89.6076 39.9982C92.0595 39.9324 94.4865 39.2991 96.6577 38.1558C98.7958 37.0291 100.67 35.343 101.933 33.2786C103.155 31.28 103.757 28.8455 103.691 26.5097C103.625 24.1904 102.915 21.8299 101.52 19.9629C100.166 18.1452 98.1849 16.8951 95.9808 16.3522C91.7128 15.2995 86.8008 16.8704 84.9516 21.0814C84.0435 23.154 84.1426 25.7037 85.8762 27.3322C87.3539 28.7057 89.6737 29.2074 91.366 27.9408C92.0264 27.4555 91.3825 26.3288 90.7139 26.8305C90.0617 27.3157 89.1949 27.4473 88.4106 27.2664C86.4459 26.8305 85.3892 25.0539 85.6451 23.1211C85.9175 21.0814 87.3952 19.3707 89.2279 18.5153C90.8212 17.7587 92.7364 17.6271 94.4453 18.0218C96.2532 18.4331 97.7969 19.3213 98.9774 20.7031C99.4975 21.3199 100.092 22.274 100.373 22.9567C100.562 23.4255 100.711 23.9107 100.827 24.396C100.959 24.9388 101 25.2513 101.041 25.6872C101.083 26.1889 101.091 26.7071 101.066 27.2088C101.058 27.4391 101.041 27.6776 101.017 27.8997C101.017 27.8997 100.983 28.1382 100.983 28.1711C100.967 28.2862 100.942 28.4014 100.926 28.5165C100.835 29.0182 100.703 29.5117 100.546 29.997C100.48 30.219 100.397 30.4329 100.307 30.6467C100.257 30.7701 100.166 30.9675 100.042 31.2224C99.1343 33.0401 97.7887 34.463 96.1046 35.5157C95.2048 36.075 94.3379 36.4862 93.4051 36.807C92.9015 36.9715 92.3814 37.1195 91.8696 37.2347C91.3743 37.3416 90.879 37.4238 90.4745 37.465C86.1239 37.8926 81.7981 36.3053 78.4464 33.5253C75.1195 30.7619 72.8245 26.9538 71.8834 22.751C70.9836 18.6798 71.5367 14.2796 73.8069 10.743C76.0276 7.28866 79.726 4.97753 83.6225 3.8343C87.9483 2.5677 92.497 2.78977 96.8063 4.02347C99.1673 4.70612 101.421 5.6684 103.584 6.80341C104.682 7.37913 105.747 8.00421 106.787 8.66218C107.307 8.99117 107.827 9.32838 108.331 9.68204C108.818 10.0193 109.321 10.4881 109.891 10.669C110.097 10.7348 110.411 10.669 110.551 10.4963C110.832 10.1508 111.096 9.78896 111.418 9.4682C111.732 9.15566 112.103 8.88425 112.401 8.56348C112.69 8.24273 112.929 7.88084 113.243 7.57653C113.267 7.56008 113.292 7.54362 113.317 7.52717C117.057 5.2325 121.036 3.19279 125.337 2.20583C129.225 1.30933 133.344 1.36691 137.125 2.67463C140.84 3.9659 143.812 6.52377 145.612 10.0028C147.345 13.3502 147.841 17.3886 147.139 21.0403C146.38 24.947 144.332 28.8044 141.03 31.1402C137.778 33.4431 133.534 34.3314 129.778 32.8921C128.102 32.2505 126.567 31.1649 125.444 29.7585C124.321 28.3356 123.752 26.5015 123.735 24.7003C123.719 22.8744 124.255 21.0403 125.345 19.5681C126.41 18.137 128.028 17.1747 129.753 16.7882C131.487 16.3934 133.377 16.5908 134.929 17.4708C136.638 18.4413 138.05 20.333 137.91 22.3727C137.769 24.4453 136.019 26.2383 133.84 25.8188C132.907 25.6379 132.131 25.0293 131.801 24.1328C131.52 23.3843 131.528 22.2987 132.057 21.6489C132.329 21.3199 131.85 20.8429 131.586 21.1719C130.992 21.9039 130.711 22.6606 130.843 23.6064C131.115 25.6214 132.998 26.8058 134.962 26.4933C137.084 26.1478 138.43 24.2726 138.595 22.2247C138.776 20.0287 137.489 17.9972 135.738 16.7635C134.087 15.6038 131.974 15.1843 129.984 15.4311C127.896 15.686 125.915 16.6154 124.511 18.211C123.1 19.8231 122.324 21.871 122.158 23.993C121.812 28.4014 124.519 32.5302 128.383 34.5288C132.734 36.7823 138.017 36.1161 142.004 33.4267C144.118 32.0038 145.826 30.0792 147.09 27.8915C147.222 27.7599 147.354 27.6365 147.486 27.5049C149.806 25.2925 152.695 23.6969 155.84 23.0142C158.87 22.3563 162.032 22.6194 164.921 23.738C170.675 25.9669 174.316 31.9462 173.68 38.0489C173.086 43.6746 168 48.3544 162.37 48.3298C159.34 48.3215 156.443 46.9562 154.561 44.5875C152.678 42.2188 152.282 38.9454 153.719 36.2642C155.081 33.7063 158.053 32.086 160.95 32.7605C162.411 33.1059 163.774 33.9942 164.434 35.3759C165.086 36.7576 164.979 38.4273 164.046 39.6527C163.774 40.0064 164.393 40.4834 164.673 40.1298C165.161 39.5129 165.491 38.8138 165.623 38.0489C165.895 36.4698 165.416 34.8413 164.343 33.6487C163.229 32.4068 161.569 31.7324 159.927 31.6255C156.773 31.4034 153.512 33.5089 152.167 36.3217C150.672 39.4389 151.201 43.5841 153.331 46.2983C155.584 49.1851 159.316 50.7231 162.956 50.5586C166.349 50.4024 169.594 48.8644 171.979 46.471C172.103 46.3476 172.219 46.2242 172.334 46.0926C176.247 44.1681 180.928 45.665 184.362 47.9843C187.887 50.3612 190.711 53.61 194.269 55.954C197.62 58.1665 201.715 59.5235 205.694 58.2981C209.45 57.1384 212.249 53.7087 212.224 49.728C212.208 47.8692 211.522 46.0926 210.301 44.6945C209.632 43.9378 208.749 43.214 207.783 42.7123C208.559 42.7041 209.318 42.7781 210.078 42.9919C211.118 43.2798 212.117 43.7651 213.041 44.3572C214.057 45.0728 214.973 45.9117 215.766 46.8493C217.491 48.889 218.54 51.4387 219.035 54.0377C220.05 59.4413 218.482 64.9354 215.625 69.5412C210.169 78.3416 200.262 83.9508 189.91 84.3538C184.478 84.5594 178.947 83.4326 174.085 80.9817C171.88 79.8713 169.8 78.4896 168.19 76.6062C166.696 74.8708 165.829 72.6912 165.747 70.5035C165.664 68.1676 166.308 65.9388 167.695 64.0142C168.265 63.2164 169.197 62.361 170.048 61.8018C171.113 61.1027 172.087 60.6503 173.325 60.3871C175.405 59.943 177.733 60.3707 179.599 61.6208C181.572 62.9368 182.662 65.1574 182.654 67.5015C182.645 69.8784 181.424 71.9428 179.31 73.0531C177.37 74.0812 175.075 74.0401 173.226 72.831C171.335 71.5973 170.147 69.2698 170.535 67.0162C170.733 65.8812 171.798 64.3103 173.143 64.7544C173.903 65.0012 174.596 66.0375 173.837 66.679C173.028 67.3699 174.208 68.5378 175.009 67.8469C175.975 67.0162 175.95 65.5111 175.149 64.5981C174.728 64.1211 174.167 63.8744 173.531 63.8744C172.954 63.8744 172.334 64.1047 171.814 64.3514C170.659 64.9107 170.056 66.2266 169.817 67.4274C169.346 69.8619 170.526 72.3869 172.466 73.8509C174.53 75.4136 177.329 75.4465 179.632 74.4266C182.067 73.3492 183.793 71.0134 184.197 68.3979C184.635 65.5933 183.694 62.7229 181.679 60.7079C179.715 58.7422 176.825 57.6072 174.035 57.7963C171.113 57.9937 168.339 59.3261 166.366 61.4892C164.393 63.6605 163.311 66.4734 163.229 69.3931C163.138 72.2471 164.063 75.0352 165.804 77.297C167.249 79.164 169.131 80.628 171.179 81.7959C170.766 82.3305 170.345 82.8487 169.924 83.3668C167.91 85.826 165.623 88.1207 162.981 89.9219C160.348 91.7231 157.409 93.1048 154.321 93.9273C150.928 94.832 147.279 95.1034 143.82 94.3961C140.873 93.7957 138.166 92.4633 135.994 90.4154C135.904 90.2098 135.73 90.0288 135.524 89.9466C135.425 89.8396 135.317 89.7409 135.218 89.6422C133.105 87.3393 131.974 84.3702 132.106 81.2531C132.172 79.748 132.527 78.1524 133.295 76.8447C134.079 75.504 135.202 74.4019 136.572 73.6617C139.255 72.2224 142.863 72.2718 145.273 74.2457C147.395 75.9811 148.163 79.09 147.263 81.6397C146.834 82.8816 145.942 83.9508 144.786 84.5676C143.639 85.1927 142.169 85.3572 141.063 84.9131C140.882 84.839 140.7 84.7403 140.535 84.6334C140.461 84.5841 140.386 84.5347 140.312 84.4854C140.312 84.4854 140.304 84.4854 140.304 84.4772C140.295 84.4689 140.287 84.4607 140.271 84.4443C140.155 84.3456 140.048 84.2386 139.949 84.1235C139.924 84.0988 139.899 84.0659 139.883 84.0413C139.874 84.0248 139.825 83.9672 139.817 83.9508C139.718 83.7945 139.618 83.63 139.536 83.4573C139.536 83.4491 139.519 83.4244 139.511 83.3997C139.486 83.3339 139.462 83.2681 139.445 83.2023C139.396 83.0543 139.363 82.9062 139.33 82.7582C139.313 82.6924 139.305 82.6184 139.288 82.5526L139.288 82.5115C139.28 82.3387 139.272 82.166 139.272 82.0015C139.272 81.9275 139.28 81.8535 139.288 81.7712L139.288 81.7466C139.313 81.6068 139.346 81.4669 139.379 81.3271C139.387 81.2778 139.445 81.0968 139.445 81.0804C139.495 80.9488 139.552 80.8172 139.602 80.6856C139.61 80.6774 139.618 80.6609 139.627 80.6445C139.693 80.5375 139.751 80.4224 139.817 80.3155C139.825 80.3155 139.99 80.1181 140.023 80.0934C140.064 80.0605 140.097 80.0276 140.147 79.9947C140.163 79.9865 140.188 79.97 140.238 79.9289C141.443 79.1394 140.386 77.3053 139.098 77.9961C138.405 78.3662 137.819 78.942 137.406 79.6082C136.531 81.0228 136.729 82.9803 137.406 84.4196C138.166 86.0398 139.767 87.0104 141.509 87.2324C144.993 87.6601 148.278 85.094 148.889 81.7054C149.442 78.5883 148.237 75.208 145.645 73.3327C142.904 71.3341 139.049 71.4082 136.077 72.8475C132.94 74.369 130.884 77.7247 130.414 81.0968C129.894 84.7897 131.223 88.3757 133.625 91.1638C132.866 91.8382 132.065 92.4633 131.206 93.0226C125.84 96.551 119.087 97.6531 112.772 97.8916C105.904 98.1466 98.8289 97.0444 92.9511 93.3104C87.9401 90.1193 83.9692 85.1598 82.1448 79.5341C80.1966 73.5054 80.5598 66.7612 83.4409 61.078C86.2642 55.5017 91.5064 51.3071 97.5163 49.5881C103.551 47.8609 110.271 48.9055 115.315 52.697C120.342 56.4886 122.951 63.1095 121.143 69.2368C119.517 74.7227 113.796 78.9995 107.976 78.2511C105.218 77.8974 102.791 76.3841 101.05 74.2703C100.274 73.3245 99.5966 72.0579 99.2499 70.9065C99.1508 70.561 99.06 70.2156 98.994 69.8619C98.994 69.829 98.9362 69.4918 98.9362 69.4918C98.9197 69.3273 98.9031 69.1628 98.8866 69.0066C98.8536 68.6447 98.8454 68.2746 98.8619 67.9127C98.8701 67.7482 98.8784 67.5919 98.8949 67.4274C98.8949 67.411 98.9032 67.3205 98.9114 67.2629C98.9197 67.2054 98.9362 67.1149 98.9362 67.0984C99.0022 66.7366 99.0848 66.3747 99.1921 66.0128C99.2416 65.8565 99.2829 65.7085 99.3407 65.5522C99.3572 65.5111 99.481 65.215 99.481 65.2068C99.6296 64.886 99.7947 64.5735 99.9846 64.2692C100.075 64.1129 100.174 63.9566 100.274 63.8086C100.315 63.751 100.348 63.7016 100.389 63.6441C100.397 63.6276 100.406 63.6194 100.414 63.6112C100.422 63.6112 100.422 63.603 100.43 63.5947C100.893 63.0272 101.322 62.6407 101.817 62.3364C101.991 62.2294 102.172 62.1307 102.354 62.0485C102.412 62.0238 102.461 61.9909 102.519 61.9745C102.552 61.958 102.585 61.9416 102.593 61.9416C102.874 61.8346 103.171 61.7606 103.468 61.7113C103.485 61.7113 103.493 61.7031 103.501 61.7031C103.518 61.7031 103.534 61.7031 103.559 61.7031C103.642 61.7031 103.724 61.6948 103.807 61.6866C103.964 61.6784 104.129 61.6866 104.294 61.6866C104.36 61.6866 104.583 61.7113 104.616 61.7113C104.649 61.7195 104.863 61.7606 104.938 61.7771C105.615 61.9251 106.176 62.0567 106.737 62.4022C106.721 62.4022 106.861 62.5173 106.894 62.5502C107.018 62.6489 107.134 62.7558 107.249 62.8627C107.431 63.0437 107.563 63.1835 107.695 63.3809C108.001 63.8332 108.215 64.335 108.24 64.886C108.289 66.0375 110.081 66.0375 110.04 64.886C109.982 63.4549 109.412 62.1636 108.364 61.1767C107.249 60.1321 105.904 59.433 104.31 59.2521C102.775 59.0876 101.19 59.54 99.9516 60.4447C97.2108 62.435 95.89 65.9634 96.278 69.2862C97.0292 75.7179 103.361 80.8336 109.825 80.3566C116.545 79.8631 122.15 74.4184 123.067 67.8304C123.537 64.4419 122.901 60.9875 121.432 57.9033C119.963 54.819 117.527 52.2611 114.63 50.4517C108.818 46.8082 101.462 46.3229 95.0644 48.6505C91.8366 49.8266 88.8647 51.6361 86.3881 54.013C83.8619 56.431 81.9467 59.3919 80.6341 62.6078C79.3132 65.8483 78.6858 69.3684 78.7354 72.8557C78.7849 76.3923 79.5691 79.8138 81.0221 83.0296C82.0375 85.2914 83.3831 87.4051 84.9764 89.3133C83.3914 90.7197 81.5587 91.9205 79.5526 92.6113C75.7634 93.9191 71.6523 94.1329 67.7805 93.0802C65.8983 92.562 64.1151 91.756 62.4806 90.695C61.7046 90.1933 60.9699 89.634 60.2847 89.0089C59.9049 88.6635 59.5417 88.3181 59.195 87.9397C58.9721 87.7094 58.7739 87.4627 58.551 87.2489C59.6738 86.3195 60.6892 85.2585 61.5395 84.0412C63.2318 81.6232 64.0161 78.6047 63.5703 75.685C63.1575 72.9873 61.556 70.6268 59.1289 69.3355C56.966 68.1759 54.1922 67.962 52.0376 69.2615C50.0728 70.4376 48.6777 72.5678 48.6281 74.8872C48.5786 77.1654 50.0233 78.9666 52.1036 79.7562C53.0613 80.1263 54.1262 80.2497 55.1333 80.0523C55.6039 79.9618 56.091 79.8055 56.4955 79.5506C56.9413 79.2627 57.2385 78.8926 57.5934 78.5143C58.0062 78.0701 57.3375 77.4039 56.9248 77.8481C56.4212 78.3909 55.4058 78.6788 54.6875 78.7363C52.9622 78.8679 51.1543 78.1524 50.2462 76.6308C49.1565 74.8132 49.8747 72.5514 51.2616 71.1203C52.8549 69.4754 55.1911 69.1382 57.255 70.084C59.3436 71.038 60.8295 72.9544 61.3083 75.1833C61.8119 77.5273 61.201 80.0358 59.9875 82.0755C58.7492 84.1564 56.867 85.7684 54.7866 86.9775C50.1306 89.6751 44.5665 90.4647 39.2501 90.0946C29.5583 89.4202 20.1885 84.9624 13.1467 78.3744C9.64641 75.101 6.67449 71.2848 4.43729 67.0573C1.93593 62.3117 0.235325 56.6366 1.92766 51.3646Z" fill="url(#paint0_linear)"/>
<defs>
<linearGradient id="paint0_linear" x1="220.001" y1="49.9908" x2="0.00483483" y2="49.9908" gradientUnits="userSpaceOnUse">
<stop stop-color="#A06D25"/>
<stop offset="0.1443" stop-color="#DFA843"/>
<stop offset="0.269" stop-color="#F2D65A"/>
<stop offset="0.4133" stop-color="#DFA843"/>
<stop offset="0.532" stop-color="#CE8B23"/>
<stop offset="0.6458" stop-color="#F2D65A"/>
<stop offset="0.7704" stop-color="#DFA843"/>
<stop offset="0.8704" stop-color="#A06D25"/>
<stop offset="1" stop-color="#DFA843"/>
</linearGradient>
</defs>
</svg>
