<svg width="581" height="9" viewBox="0 0 581 9" fill="none" xmlns="http://www.w3.org/2000/svg">
<path d="M0.668701 4.34824L18.7931 3.73689L36.9174 3.26819L73.1661 2.35115C97.3252 1.88245 121.505 1.43415 145.664 1.16923C169.823 0.802423 194.002 0.700528 218.161 0.496745L290.658 0.272583L363.156 0.476347C387.315 0.700508 411.494 0.782025 435.653 1.14883C459.812 1.41375 483.992 1.86208 508.151 2.33078L544.4 3.2478L562.524 3.71652L580.648 4.32784L562.524 4.9392L544.4 5.40789L508.151 6.32494C483.992 6.79364 459.812 7.24196 435.653 7.50688C411.494 7.89407 387.315 7.95518 363.156 8.17934L290.658 8.4035L218.161 8.17934C194.002 7.95518 169.823 7.87369 145.664 7.50688C121.505 7.24196 97.3252 6.79364 73.1661 6.32494L36.9174 5.40789L18.7931 4.9392L0.668701 4.34824Z" fill="url(#paint0_linear)"/>
<defs>
<linearGradient id="paint0_linear" x1="0.676856" y1="4.35638" x2="580.636" y2="4.35638" gradientUnits="userSpaceOnUse">
<stop stop-color="#D59E38"/>
<stop offset="0.1411" stop-color="#D7A33E"/>
<stop offset="0.3329" stop-color="#DDAF50"/>
<stop offset="0.5538" stop-color="#E6C46C"/>
<stop offset="0.7947" stop-color="#F4E294"/>
<stop offset="0.8989" stop-color="#FAF0A7"/>
<stop offset="1" stop-color="#EFCE6E"/>
</linearGradient>
</defs>
</svg>
