<svg width="144" height="32" viewBox="0 0 144 32" fill="none" xmlns="http://www.w3.org/2000/svg">
<path fill-rule="evenodd" clip-rule="evenodd" d="M63.3035 0.661409C61.9693 0.84758 60.5953 0.999187 59.1568 1.11311V1.96541H59.4582C59.9619 1.96541 60.3271 2.04988 60.5613 2.20823C60.7991 2.36662 60.9148 2.61115 60.9148 2.94639C60.9148 3.19113 60.8148 3.75422 60.5927 4.62537C60.5568 4.77683 60.5256 4.90476 60.5 5.00951L60.4996 5.01147L60.4983 5.01687C60.484 5.0754 60.4715 5.12654 60.461 5.17036L58.1559 13.9038C58.1882 13.5655 58.2044 13.2316 58.2044 12.9024C58.2044 11.3699 57.8432 10.1891 57.1081 9.35709C56.3844 8.53351 55.3437 8.1183 54.0027 8.1183C53.0159 8.1183 52.077 8.42141 51.1743 9.05928C50.2555 9.67647 49.2956 10.6773 48.2888 12.0407L49.2981 8.51455C48.1001 8.74239 46.8594 8.93038 45.5708 9.09431C44.2782 9.25535 42.9306 9.40405 41.5078 9.51112V10.3702C42.2068 10.3702 42.6858 10.4469 42.942 10.6176C43.1939 10.7718 43.3226 11.0529 43.3226 11.4724C43.3226 11.596 43.3005 11.7841 43.2616 12.0121C43.2213 12.248 43.1686 12.4968 43.1026 12.7387L39.2736 27.9651C38.9518 29.2605 38.6454 30.0572 38.3435 30.3619C38.0461 30.6672 37.602 30.8184 37.0033 30.8184C36.978 30.8184 36.9282 30.8228 36.8647 30.84C36.8033 30.8492 36.7582 30.8539 36.7241 30.8539V31.7852H46.3419V30.8924C45.4919 30.8414 44.9269 30.7259 44.6474 30.5412C44.3685 30.3547 44.2325 30.0222 44.2325 29.5625C44.2325 29.3259 44.2441 29.0879 44.2824 28.8552C44.3098 28.6145 44.366 28.3704 44.4366 28.1403L45.4691 24.316C45.857 24.6188 46.2857 24.8427 46.7569 25.0071C47.2383 25.1659 47.7467 25.2409 48.2888 25.2409C49.6156 25.2409 50.8607 24.8803 52.0403 24.1649C53.2159 23.4545 54.3137 22.3826 55.3572 20.9553C56.0573 19.9823 56.6465 18.9509 57.1127 17.8562L56.9542 18.4568L56.9043 18.6594C56.3963 20.6512 56.1377 21.8809 56.1377 22.3442C56.1377 23.2872 56.3844 24.0168 56.8859 24.5211C57.3834 25.0269 58.102 25.2763 59.021 25.2763C60.0641 25.2763 61.0624 24.8893 62.0221 24.111C62.6054 23.6384 63.2102 22.989 63.8327 22.1644C63.9979 22.9266 64.3233 23.5638 64.8097 24.0818C65.5444 24.8544 66.5447 25.2414 67.8153 25.2414C69.0451 25.2414 70.1613 24.8728 71.1595 24.1309C72.1591 23.4009 73.0876 22.2677 73.9401 20.7483C73.8402 21.2936 73.7681 21.7406 73.7269 22.0855C73.6774 22.4261 73.6585 22.7166 73.6585 22.9407C73.6585 23.6966 73.8919 24.263 74.3661 24.6612C74.8298 25.0479 75.5139 25.2414 76.4104 25.2414C77.4879 25.2414 78.4972 24.8728 79.4321 24.1281C80.3689 23.3853 81.2828 22.2203 82.2036 20.6433L81.3855 20.0146C81.2717 20.1832 81.1054 20.4262 80.889 20.7322C80.1738 21.8081 79.5771 22.3442 79.1236 22.3442C78.9598 22.3442 78.8401 22.2764 78.7468 22.1278C78.647 21.978 78.6062 21.7854 78.6062 21.5453C78.6062 21.2866 78.8217 20.381 79.2506 18.8248V18.7898L81.6584 10.1645C81.8333 10.2276 81.9753 10.3166 82.0858 10.4314C82.3313 10.6901 82.5759 11.2352 82.8163 12.0785C83.0908 13.056 83.3975 14.3975 83.7403 16.095C84.0757 17.7933 84.4132 19.6869 84.7444 21.7617C84.9038 22.7296 85.0284 23.5436 85.1059 24.2122C85.1825 24.8728 85.2236 25.4234 85.2236 25.8557C85.2236 26.4478 84.9669 27.0576 84.4525 27.7074C83.951 28.3525 83.506 28.6738 83.1138 28.6738C82.8964 28.6738 82.4513 28.4618 81.8001 28.0173C81.1449 27.5751 80.5302 27.3513 79.9586 27.3513C79.2277 27.3513 78.6292 27.5685 78.1551 28.0015C77.6763 28.4407 77.4404 28.9789 77.4404 29.6451C77.4404 30.3784 77.7171 30.9542 78.2634 31.3726C78.8133 31.79 79.5661 32 80.5275 32C81.9724 32 83.4764 31.2755 85.0376 29.8227C86.5985 28.3709 88.3384 26.0727 90.2439 22.91C91.927 20.1358 93.2585 17.6532 94.232 15.4501C95.203 13.2425 95.6931 11.6372 95.6931 10.6405C95.6931 10.1514 95.6109 9.72775 95.4502 9.37047H97.6801L94.6514 20.9376C94.5494 21.3121 94.4745 21.6656 94.4271 21.984C94.3768 22.301 94.3496 22.5836 94.3496 22.8371C94.3496 23.5574 94.5474 24.1334 94.9348 24.5649C95.3232 24.9849 95.8489 25.202 96.5229 25.202C97.3596 25.202 98.2788 24.8129 99.2834 24.031C100.052 23.4454 100.836 22.6611 101.632 21.6818C101.801 22.6121 102.164 23.3707 102.723 23.9635C103.521 24.8042 104.658 25.2318 106.106 25.2318C107.586 25.2318 109.091 24.8712 110.63 24.1334C111.925 23.5261 113.29 22.6291 114.726 21.4491C114.987 22.2586 115.404 22.9627 115.976 23.5584C117.034 24.6743 118.414 25.2257 120.101 25.2257C121.642 25.2257 123.064 24.837 124.366 24.0581C125.302 23.4955 126.182 22.7313 127.012 21.7611L126.028 25.2431C126.281 25.2065 126.525 25.1818 126.761 25.1677C127.003 25.1493 127.256 25.1493 127.507 25.1493H127.507C127.58 25.1493 127.602 25.1493 127.602 25.1498C127.602 25.1509 127.476 25.1547 127.645 25.1677C127.712 25.1716 127.825 25.1764 127.958 25.182C128.302 25.1965 128.781 25.2167 128.95 25.2431L131.003 18.1596C131.22 17.4842 131.561 16.8341 132.031 16.2054C132.503 15.5816 133.252 14.8258 134.265 13.9371C135.399 12.9342 136.384 12.1576 137.249 11.6156C138.105 11.0724 138.754 10.8035 139.197 10.8035C139.48 10.8035 139.699 10.8722 139.845 11.0036C140 11.1436 140.075 11.3441 140.075 11.6042C140.075 11.7009 140.068 11.8114 140.05 11.9253C140.029 12.0412 139.993 12.2154 139.937 12.4397L136.839 22.7096C136.766 22.9204 136.706 23.1165 136.675 23.294C136.64 23.4723 136.627 23.6399 136.627 23.7974C136.627 24.2366 136.777 24.578 137.085 24.8318C137.391 25.0822 137.809 25.2108 138.34 25.2108C139.15 25.2108 140.038 24.8746 141.003 24.2086C141.962 23.5479 142.963 22.5808 144 21.3243L143.385 20.8079C142.809 21.4866 142.264 22.0218 141.744 22.4111L141.701 22.4438C141.204 22.8208 140.806 23.1227 140.52 23.1227C140.409 23.1227 140.306 23.0184 140.215 22.9264C140.188 22.8988 140.162 22.8723 140.137 22.85C140.029 22.7473 139.966 22.6348 139.966 22.5082C139.966 22.2876 139.989 22.0558 140.029 21.8345C140.068 21.6042 140.118 21.3881 140.17 21.2L143.185 11.2646C143.262 10.9696 143.325 10.6962 143.373 10.4464C143.424 10.2026 143.451 10.0007 143.451 9.83269C143.451 9.28904 143.31 8.88638 143.05 8.61759C142.783 8.36087 142.38 8.23197 141.826 8.23197C140.772 8.23197 139.36 8.81511 137.591 9.97113C135.819 11.1436 133.871 12.7734 131.756 14.878L135.886 0.298497H134.808C133.97 0.624088 133.068 0.873912 132.122 1.06723C131.169 1.24832 130.145 1.37418 129.05 1.41962L128.84 2.37968H130.198C131.082 2.37968 131.624 2.4512 131.814 2.58141C132 2.72627 132.097 2.98661 132.097 3.36185C132.097 3.46863 132.092 3.60286 132.069 3.73343C132.053 3.87347 132.031 4.00491 131.995 4.13345L127.957 18.419C126.412 20.7228 124.986 21.8161 124.12 22.3668C123.248 22.9151 122.36 23.3277 121.46 23.3277C120.315 23.3277 119.412 22.8211 118.738 22.0717C118.071 21.3232 117.74 20.2985 117.74 19.0154C117.74 17.8828 117.946 16.7349 118.356 15.5552C118.773 14.3733 119.366 13.2536 120.135 12.2013C120.765 11.3363 121.501 10.6527 122.341 10.1451C123.188 9.64387 124.01 9.40199 124.82 9.40199C125.219 9.40199 125.527 9.46448 125.761 9.59157C125.995 9.71793 126.106 9.88136 126.106 10.0825C126.106 10.1915 125.998 10.4604 125.772 10.8895C125.542 11.3297 125.432 11.7071 125.432 12.036C125.432 12.5077 125.572 12.8848 125.854 13.1756C126.138 13.4714 126.505 13.6124 126.961 13.6124C127.519 13.6124 127.997 13.407 128.399 12.9857C128.81 12.5687 129.01 12.063 129.01 11.4789C129.01 10.4935 128.619 9.71176 127.839 9.12235C127.059 8.5375 126.013 8.23803 124.695 8.23803C123.439 8.23803 122.22 8.51672 121.027 9.05808C119.824 9.59157 118.738 10.3673 117.769 11.3628C116.712 12.4634 115.882 13.7019 115.292 15.0964C114.694 16.485 114.396 17.8454 114.396 19.1811C114.396 19.4276 114.406 19.6676 114.425 19.9011C113.106 20.993 111.903 21.8216 110.821 22.3831C109.655 23.0015 108.595 23.4281 107.675 23.4281C106.739 23.4281 106.021 23.0508 105.536 22.5397C105.041 22.0307 104.801 21.2928 104.801 20.3248C104.801 20.0088 104.819 19.6607 104.875 19.2877C104.925 18.908 104.995 18.5061 105.103 18.0911C108.43 17.8328 111.123 17.0769 113.176 15.813C115.224 14.5492 116.259 13.044 116.259 11.3108C116.259 10.3461 115.905 9.59157 115.202 9.04332C114.496 8.49148 113.541 8.21289 112.325 8.21289C111.002 8.21289 109.719 8.52097 108.46 9.11811C107.219 9.72395 106.066 10.5891 105.018 11.727C103.939 12.9178 103.083 14.2886 102.457 15.8183C101.833 17.3513 101.52 18.8668 101.52 20.3564L101.52 20.3648C100.82 21.2224 100.23 21.8555 99.7535 22.2562C99.2229 22.7083 98.7758 22.9248 98.3944 22.9248C98.1019 22.9248 97.8633 22.8294 97.7048 22.6307C97.5325 22.4296 97.4506 22.1503 97.4506 21.7784C97.4506 21.6219 97.4732 21.4327 97.4981 21.2276C97.5325 21.0196 97.5846 20.7983 97.6506 20.5432L100.56 9.37047H103.564L103.859 8.14681H100.944L102.368 2.34148H101.28C100.44 4.09468 99.4833 5.46461 98.4292 6.45622C97.3707 7.44529 96.1576 8.08472 94.7872 8.37745L94.7463 8.51437C94.361 8.25103 93.8756 8.11877 93.2969 8.11877C92.5399 8.11877 91.9334 8.34009 91.4778 8.78022C91.0148 9.22539 90.788 9.8102 90.788 10.5405C90.788 11.1697 91.124 11.7381 91.78 12.2343C92.4368 12.723 92.7658 13.1537 92.7658 13.5062C92.7658 13.9624 92.5714 14.677 92.1784 15.639C91.7843 16.6053 91.0533 18.1477 89.9835 20.2646C89.7491 19.0947 89.4524 17.5351 89.087 15.597C88.1908 10.7293 87.4492 8.30085 86.8839 8.30085C86.7774 8.30085 86.0129 8.40327 84.6063 8.61095C83.725 8.7407 82.8545 8.86182 81.9917 8.97086L82.0696 8.69165H77.1384L76.6213 10.7112C76.4562 9.84067 76.1181 9.18792 75.5988 8.75701C75.0806 8.33284 74.3846 8.11877 73.4865 8.11877C72.5451 8.11877 71.5693 8.40327 70.5491 8.97096C69.5321 9.53938 68.5569 10.3499 67.616 11.4049C66.4199 12.721 65.4723 14.2487 64.7689 15.9603C64.1116 17.5489 63.7653 19.0548 63.7121 20.493C63.2825 21.1356 62.9781 21.5504 62.7981 21.7406C62.5504 22.002 62.3351 22.1322 62.1442 22.1322C61.9583 22.1322 61.8156 22.0663 61.713 21.9271C61.6157 21.7968 61.5704 21.6034 61.5704 21.3632C61.5704 21.2742 61.5979 21.1045 61.666 20.842C61.7111 20.6626 61.7522 20.5275 61.7861 20.4158L67.0685 0C65.8872 0.261067 64.628 0.477668 63.3035 0.661409ZM101.52 20.3648C101.597 20.271 101.675 20.1746 101.754 20.0754L102.405 20.6739C102.146 21.03 101.888 21.3661 101.632 21.6818C101.558 21.2757 101.521 20.8369 101.52 20.3648ZM63.7121 20.493C63.866 20.2629 64.0359 20.0035 64.222 19.7148L65.0657 20.3386C64.648 21.0206 64.2367 21.6294 63.8327 22.1644C63.7475 21.771 63.7049 21.3444 63.7049 20.8836C63.7049 20.754 63.7073 20.6238 63.7121 20.493ZM34.925 11.8574C34.9353 11.8876 34.9454 11.9173 34.9577 11.9478C35.1897 8.83459 33.28 6.66462 29.377 6.37661C26.7617 6.18489 23.6384 6.87712 20.5039 8.19864L21.5483 8.83459C27.9175 7.2416 33.4414 8.29758 34.8964 11.7771C34.907 11.8048 34.9161 11.8312 34.9249 11.8573L34.925 11.8574ZM12.8125 27.483C17.8337 27.8479 25.2111 24.334 29.2952 19.2582C33.3765 14.183 32.6218 9.77324 27.604 9.40224C26.2017 9.30308 24.6213 9.52668 22.9779 10.0117L29.0633 13.4319C30.1689 14.0715 30.292 15.7307 29.1204 16.4741L14.1067 25.4151C12.9604 26.0573 11.3627 25.2965 11.3904 23.6783L11.3781 17.3157C11.3522 17.3473 11.3258 17.3789 11.2995 17.4105C11.2397 17.4823 11.1799 17.5541 11.1248 17.6267C7.03833 22.702 7.79871 27.1133 12.8125 27.483ZM4.95537 22.8727C3.75739 26.9112 5.59337 29.8769 10.2008 30.2147C14.1706 30.5022 19.2782 28.7731 23.866 25.8841C23.8031 25.9122 23.7401 25.941 23.677 25.97C23.5739 26.0171 23.4703 26.0646 23.3656 26.1095C15.1969 29.6974 7.11206 29.1124 5.31212 24.7905C5.05698 24.1905 4.9478 23.5442 4.95537 22.8727ZM25.5863 13.8191L15.5105 7.61876C14.6172 7.12006 13.5986 7.72666 13.5533 8.7302L13.602 20.7652C13.5811 21.8716 14.6709 22.3914 15.4493 21.9555L25.6297 15.8943C26.4212 15.3894 26.3339 14.2546 25.5863 13.8191ZM18.4617 6.94767C27.9534 3.66775 36.7248 4.78351 38.8373 9.85057C41.1736 15.454 34.4808 23.775 23.8839 28.4321C13.29 33.0909 2.80565 32.3198 0.464869 26.7208C-1.55713 21.8716 3.18836 14.9822 11.3703 10.1971L11.3679 6.01177C11.4389 4.52958 12.9372 3.63888 14.2498 4.36916L18.4617 6.94767ZM46.3419 20.445L47.2588 17.1548C47.8302 15.077 48.4474 13.5425 49.1139 12.5404C49.7814 11.5491 50.5068 11.0459 51.3056 11.0459C51.6549 11.0459 51.9543 11.2206 52.1858 11.5629C52.4171 11.9006 52.5372 12.3525 52.5372 12.9156C52.5372 13.6894 52.3311 14.7766 51.9381 16.1583C51.5348 17.5578 51.0085 18.9548 50.3645 20.3733C49.8267 21.4817 49.2751 22.3302 48.6988 22.9236C48.1211 23.5151 47.5626 23.8109 47.0251 23.8109C46.6826 23.8109 46.4033 23.7129 46.1943 23.5124C45.9932 23.3099 45.8952 23.0389 45.8952 22.6859C45.8952 22.5036 45.9317 22.2084 46.0179 21.7963C46.1016 21.4003 46.2065 20.9456 46.3419 20.445ZM75.6957 11.6842C75.6957 11.1975 75.5915 10.8115 75.3717 10.5193C75.1538 10.2316 74.8702 10.0869 74.5162 10.0869C74.0125 10.0869 73.5299 10.3263 73.0603 10.8129C72.5923 11.3046 72.0553 12.1135 71.4398 13.2493C70.7211 14.6022 70.1564 15.9184 69.7507 17.2204C69.3352 18.5315 69.1289 19.6395 69.1289 20.5593C69.1289 21.1194 69.2446 21.5518 69.4712 21.8781C69.7001 22.1849 70.0137 22.3442 70.3969 22.3442C70.9617 22.3442 71.542 22.0152 72.1415 21.34C72.7397 20.6715 73.3049 19.7283 73.8402 18.5151C74.4045 17.1622 74.8473 15.8443 75.188 14.5839C75.5255 13.3192 75.6957 12.353 75.6957 11.6842ZM105.381 16.8671C107.727 16.7557 109.703 16.1291 111.288 14.9973C112.886 13.851 113.672 12.5598 113.672 11.0986C113.672 10.6083 113.546 10.2417 113.291 9.9947C113.046 9.7555 112.662 9.63335 112.15 9.63335C110.73 9.63335 109.409 10.2625 108.201 11.5433C106.992 12.8342 106.055 14.6058 105.381 16.8671Z" fill="white" fill-opacity="0.5"/>
</svg>
