<svg width="200" height="200" viewBox="0 0 200 200" fill="none" xmlns="http://www.w3.org/2000/svg">
<path d="M193.677 112.323L199.992 100.008V100L200 99.9917H199.992L193.677 87.6767V87.6684L196.603 74.1218L187.296 63.8483L186.61 50.0041L174.965 42.4911L170.717 29.2917L157.517 25.0434L150.004 13.3978L136.16 12.7118L125.886 3.40524L112.34 6.3311L100 0L87.6601 6.3311L74.1136 3.40524L63.84 12.7118L49.9959 13.3978L42.4829 25.0434L29.2834 29.2917L25.0351 42.4911L13.3895 50.0041L12.7035 63.8483L3.39698 74.1218L6.32284 87.6684V87.6767L0.00826515 99.9917H0L0.00826515 100V100.008L6.32284 112.323V112.332L3.39698 125.878L12.7035 136.152L13.3895 149.996L25.0351 157.509L29.2834 170.708L42.4829 174.957L49.9959 186.602L63.84 187.288L74.1136 196.595L87.6601 193.669L100 200L112.34 193.669L125.886 196.595L136.16 187.288L150.004 186.602L157.517 174.957L170.717 170.708L174.965 157.509L186.61 149.996L187.296 136.152L196.603 125.878L193.677 112.332V112.323Z" fill="url(#paint0_radial)"/>
<path d="M125.886 3.40524L124.25 9.52145L100.008 99.9752V99.9835L100 99.9917L112.34 6.3311L125.886 3.40524Z" fill="url(#paint1_linear)"/>
<path d="M170.717 29.2917L100.025 99.9669L157.517 25.0434L170.717 29.2917Z" fill="url(#paint2_linear)"/>
<path d="M170.717 29.2917L100.033 99.9752L100.025 99.9917H100.017L100.008 100H100V99.9917L100.008 99.9835V99.9752L136.16 12.7118L150.004 13.3978L100.025 99.9669L170.717 29.2917Z" fill="url(#paint3_linear)"/>
<path d="M100.033 99.9752L100.025 99.9917H100.017L100.033 99.9752Z" fill="#892929"/>
<path d="M150.004 13.3978L100.025 99.9669L100.008 99.9835V99.9752L136.16 12.7118L150.004 13.3978Z" fill="url(#paint4_linear)"/>
<path d="M186.611 50.0041L100.033 99.9752L174.965 42.4911L186.611 50.0041Z" fill="url(#paint5_linear)"/>
<path d="M199.992 99.9917L100.008 100L193.677 87.6767L199.992 99.9917Z" fill="url(#paint6_linear)"/>
<path d="M199.992 99.9917V100.008L100.008 100L199.992 99.9917Z" fill="#892929"/>
<path d="M196.603 74.1218L190.487 75.7583L100.025 99.9917L187.297 63.8483L196.603 74.1218Z" fill="url(#paint7_linear)"/>
<path d="M112.34 193.669L100 200V100.008L112.34 193.669Z" fill="url(#paint8_linear)"/>
<path d="M157.517 174.957L150.004 186.602L100.025 100.033L157.517 174.957Z" fill="url(#paint9_linear)"/>
<path d="M170.717 170.708L100.025 100.033L100.008 100.025V100.017L100 100.008V100H100.008L100.017 100.008L100.033 100.025L170.717 170.708Z" fill="#892929"/>
<path d="M136.16 187.288L125.886 196.595L124.25 190.479L100.008 100.025L136.16 187.288Z" fill="url(#paint10_linear)"/>
<path d="M196.603 125.878L190.487 124.242L100.025 100.008H100.017L100.008 100L193.677 112.323V112.332L196.603 125.878Z" fill="url(#paint11_linear)"/>
<path d="M174.965 157.509L170.717 170.708L100.033 100.025L174.965 157.509Z" fill="url(#paint12_linear)"/>
<path d="M170.717 170.708L100.025 100.033L100.008 100.025V100.017L100 100.008V100H100.008L100.017 100.008L100.033 100.025L170.717 170.708Z" fill="#892929"/>
<path d="M200 99.9917L199.992 100V100.008L100.008 100L199.992 99.9917H200Z" fill="url(#paint13_linear)"/>
<path d="M170.717 170.708L100.025 100.033L100.008 100.025V100.017L100 100.008V100H100.008L100.017 100.008L100.033 100.025L170.717 170.708Z" fill="#892929"/>
<path d="M187.297 136.152L186.611 149.996L100.033 100.025L100.017 100.008H100.025L187.297 136.152Z" fill="url(#paint14_linear)"/>
<path d="M99.9753 99.9669L42.4829 25.0434L49.9959 13.3978L99.9753 99.9669Z" fill="url(#paint15_linear)"/>
<path d="M100 99.9917V100H99.9918L99.9835 99.9917H99.9752L99.967 99.9752L29.2834 29.2917L99.9752 99.9669L99.9918 99.9835L100 99.9917Z" fill="#892929"/>
<path d="M100 0V99.9917L87.6602 6.3311L100 0Z" fill="url(#paint16_linear)"/>
<path d="M99.9918 99.9752L63.8401 12.7118L74.1137 3.40524L75.7502 9.52145L99.9918 99.9752Z" fill="url(#paint17_linear)"/>
<path d="M6.32283 87.6767V87.6684L3.39697 74.1218L9.51318 75.7583L99.9752 99.9917H99.9835L99.9917 100L6.32283 87.6767Z" fill="url(#paint18_linear)"/>
<path d="M50.0042 100L0.00830078 100.008V99.9917L50.0042 100Z" fill="#892929"/>
<path d="M99.967 99.9752L25.0352 42.4911L29.2834 29.2917L99.967 99.9752Z" fill="url(#paint19_linear)"/>
<path d="M100 99.9917V100H99.9918L99.9835 99.9917H99.9752L99.967 99.9752L29.2834 29.2917L99.9752 99.9669L99.9918 99.9835L100 99.9917Z" fill="#892929"/>
<path d="M100 99.9917V100H99.9918L99.9835 99.9917H99.9752L99.967 99.9752L29.2834 29.2917L99.9752 99.9669L99.9918 99.9835L100 99.9917Z" fill="#892929"/>
<path d="M99.9753 99.9917L12.7036 63.8483L13.3896 50.0041L99.967 99.9752L99.9753 99.9917Z" fill="url(#paint20_linear)"/>
<path d="M100 100.008L87.6601 193.669L74.1135 196.595L75.75 190.479L99.9917 100.025V100.017L100 100.008Z" fill="url(#paint21_linear)"/>
<path d="M99.9752 100.033L42.4829 174.957L29.2834 170.708L99.9752 100.033Z" fill="url(#paint22_linear)"/>
<path d="M100 100V100.008L99.9918 100.017V100.025L99.9752 100.033L29.2834 170.708L99.967 100.025L99.9835 100.008L99.9918 100H100Z" fill="#892929"/>
<path d="M99.9917 100.025L63.84 187.288L49.9958 186.602L99.9752 100.033L99.9917 100.025Z" fill="url(#paint23_linear)"/>
<path d="M99.9918 100L6.32287 112.323L0.00830078 100.008L50.0042 100H99.9918Z" fill="url(#paint24_linear)"/>
<path d="M0.00826515 100.008V100L0 99.9917H0.00826515L50.0041 100L0.00826515 100.008Z" fill="#892929"/>
<path d="M99.9668 100.025L25.035 157.509L13.3894 149.996L99.9668 100.025Z" fill="url(#paint25_linear)"/>
<path d="M100 100V100.008L99.9918 100.017V100.025L99.9752 100.033L29.2834 170.708L99.967 100.025L99.9835 100.008L99.9918 100H100Z" fill="#892929"/>
<path d="M100 100V100.008L99.9918 100.017V100.025L99.9752 100.033L29.2834 170.708L99.967 100.025L99.9835 100.008L99.9918 100H100Z" fill="#892929"/>
<path d="M99.9752 100.008L12.7035 136.152L3.39697 125.878L9.51318 124.242L99.9752 100.008Z" fill="url(#paint26_linear)"/>
<path d="M174.229 116.15L182.445 117.927C183.726 112.034 184.371 106.017 184.371 100C184.371 93.983 183.726 87.9577 182.445 82.0729L174.229 83.8499C174.304 84.1805 174.386 84.5029 174.444 84.8335C174.998 87.7758 175.469 90.7265 175.684 93.7185L172.717 93.9582C172.361 89.619 171.617 85.3128 170.502 81.1059C169.394 76.8989 167.89 72.7911 166.014 68.8652L168.708 67.5924C169.312 68.9644 169.981 70.3033 170.493 71.7084L171.32 73.7912L172.039 75.9154L172.361 76.8659L180.37 74.3119C178.527 68.5677 176.072 63.03 173.056 57.8147C170.039 52.5994 166.468 47.7064 162.427 43.2432L156.211 48.8966L156.872 49.657C157.856 50.7811 158.84 51.9134 159.74 53.1036C160.691 54.2607 161.551 55.4839 162.41 56.7072L159.964 58.4098C157.484 54.831 154.682 51.4753 151.608 48.3924C148.525 45.3178 145.161 42.5159 141.59 40.0364L143.293 37.5899C144.516 38.4495 145.739 39.3173 146.896 40.2595C148.095 41.1604 149.219 42.144 150.343 43.1275L151.103 43.7887L156.757 37.5734C152.294 33.5317 147.401 29.9612 142.185 26.9444C136.97 23.9276 131.432 21.4646 125.688 19.6297L123.134 27.6387L124.085 27.961L126.209 28.6801L128.292 29.5066C129.697 30.019 131.036 30.6885 132.408 31.2918L131.135 33.9863C127.209 32.1101 123.101 30.6141 118.894 29.4983C114.687 28.3825 110.381 27.6469 106.042 27.2832L106.282 24.3161C109.265 24.531 112.224 25.0021 115.167 25.5558C115.497 25.6137 115.819 25.7046 116.15 25.7707L117.927 17.5552C112.034 16.2741 106.017 15.6294 100 15.6294C93.983 15.6294 87.9577 16.2741 82.0729 17.5552L83.8499 25.7707C84.1805 25.6963 84.5029 25.6137 84.8335 25.5558C87.7758 25.0021 90.7265 24.531 93.7185 24.3161L93.9582 27.2832C89.619 27.6387 85.3128 28.3825 81.1059 29.4983C76.8989 30.6058 72.7911 32.1101 68.8652 33.9863L67.5924 31.2918C68.9644 30.6885 70.3033 30.019 71.7084 29.5066L73.7912 28.6801L75.9154 27.961L76.8659 27.6304L74.3119 19.6215C68.5677 21.4646 63.03 23.9193 57.8147 26.9361C52.5994 29.9529 47.7064 33.5234 43.2432 37.5651L48.8966 43.7805L49.657 43.1193C50.7811 42.1357 51.9134 41.1522 53.1036 40.2513C54.2607 39.3008 55.4839 38.4412 56.7072 37.5816L58.4098 40.0281C54.831 42.5077 51.4753 45.3095 48.3924 48.3842C45.3178 51.4671 42.5159 54.831 40.0364 58.4015L37.5899 56.6989C38.4495 55.4757 39.3173 54.2524 40.2595 53.0953C41.1604 51.8969 42.144 50.7728 43.1275 49.6487L43.7887 48.8883L37.5734 43.235C33.5317 47.6982 29.9612 52.5911 26.9444 57.8064C23.9276 63.0217 21.4646 68.5594 19.6297 74.3037L27.6304 76.8659L27.9527 75.9154L28.6718 73.7912L29.4983 71.7084C30.0107 70.3033 30.6802 68.9644 31.2836 67.5924L33.978 68.8652C32.1018 72.7911 30.6058 76.8989 29.49 81.1059C28.3743 85.3128 27.6387 89.619 27.275 93.9582L24.3078 93.7185C24.5227 90.7348 24.9938 87.7758 25.5476 84.8335C25.6054 84.5029 25.6963 84.1805 25.7707 83.8499L17.5552 82.0729C16.2741 87.966 15.6294 93.983 15.6294 100C15.6294 106.017 16.2741 112.042 17.5552 117.927L25.7707 116.15C25.6963 115.819 25.6137 115.497 25.5476 115.167C24.9938 112.224 24.5227 109.273 24.3078 106.282L27.275 106.042C27.6304 110.381 28.3743 114.687 29.49 118.894C30.5976 123.101 32.1018 127.209 33.978 131.135L31.2836 132.408C30.6802 131.036 30.0107 129.697 29.4983 128.292L28.6718 126.209L27.9527 124.085L27.6304 123.134L19.6215 125.688C21.4646 131.432 23.9193 136.97 26.9361 142.185C29.9529 147.401 33.5234 152.294 37.5651 156.757L43.7805 151.103L43.1193 150.343C42.1357 149.219 41.1522 148.087 40.2513 146.896C39.3008 145.739 38.4412 144.516 37.5816 143.293L40.0281 141.59C42.5077 145.169 45.3095 148.525 48.3842 151.608C51.4671 154.682 54.831 157.484 58.4015 159.964L56.6989 162.41C55.4757 161.551 54.2524 160.683 53.0953 159.74C51.9051 158.84 50.7728 157.856 49.6487 156.872L48.8883 156.211L43.235 162.427C47.6982 166.468 52.5911 170.039 57.8064 173.056C63.0217 176.072 68.5594 178.535 74.3037 180.37L76.8576 172.361L75.9071 172.039L73.783 171.32L71.7001 170.493C70.2951 169.981 68.9561 169.312 67.5841 168.708L68.8569 166.014C72.7829 167.89 76.8907 169.386 81.0976 170.502C85.3046 171.617 89.6107 172.353 93.9499 172.717L93.7102 175.684C90.7265 175.469 87.7676 174.998 84.8252 174.444C84.4946 174.386 84.1722 174.295 83.8416 174.229L82.0646 182.445C87.9577 183.726 93.9747 184.371 99.9917 184.371C106.009 184.371 112.034 183.726 117.919 182.445L116.142 174.229C115.811 174.304 115.489 174.386 115.158 174.444C112.216 174.998 109.265 175.469 106.273 175.684L106.034 172.717C110.373 172.361 114.679 171.617 118.886 170.502C123.093 169.394 127.201 167.89 131.127 166.014L132.399 168.708C131.027 169.312 129.688 169.981 128.283 170.493L126.201 171.32L124.076 172.039L123.126 172.361L125.68 180.37C131.424 178.527 136.962 176.072 142.177 173.056C147.392 170.039 152.285 166.468 156.748 162.427L151.095 156.211L150.335 156.872C149.211 157.856 148.078 158.84 146.888 159.74C145.731 160.691 144.508 161.551 143.285 162.41L141.582 159.964C145.161 157.484 148.516 154.682 151.599 151.608C154.674 148.525 157.476 145.161 159.955 141.59L162.402 143.293C161.542 144.516 160.674 145.739 159.732 146.896C158.831 148.095 157.848 149.219 156.864 150.343L156.203 151.103L162.418 156.757C166.46 152.294 170.031 147.401 173.047 142.185C176.064 136.97 178.527 131.432 180.362 125.688L172.353 123.134L172.031 124.085L171.312 126.209L170.485 128.292C169.973 129.697 169.303 131.036 168.7 132.408L166.005 131.135C167.882 127.209 169.378 123.101 170.493 118.894C171.609 114.687 172.345 110.381 172.708 106.042L175.676 106.282C175.461 109.265 174.99 112.224 174.436 115.167C174.386 115.497 174.304 115.819 174.229 116.15ZM170.196 103.347C169.973 108.364 169.188 113.348 167.89 118.192C166.592 123.035 164.766 127.73 162.468 132.193L169.931 136.053L170.403 135.127C171.138 133.763 171.708 132.317 172.37 130.92C172.956 129.49 173.535 128.052 174.064 126.597L176.866 127.606C175.213 132.193 173.147 136.623 170.708 140.838C168.27 145.053 165.452 149.054 162.311 152.765L160.038 150.839C161.071 149.682 161.972 148.417 162.947 147.219C163.848 145.954 164.774 144.714 165.617 143.417L166.179 142.541L159.112 137.995C156.393 142.21 153.236 146.144 149.69 149.707C146.128 153.244 142.194 156.41 137.978 159.129L142.524 166.196L143.4 165.634C144.698 164.79 145.938 163.857 147.202 162.964C148.409 161.989 149.665 161.088 150.822 160.055L152.748 162.327C149.029 165.476 145.037 168.287 140.822 170.725C136.606 173.163 132.176 175.229 127.589 176.882L126.581 174.081C128.035 173.552 129.474 172.973 130.903 172.386C132.308 171.725 133.747 171.163 135.11 170.419L136.036 169.948L132.176 162.484C127.721 164.782 123.018 166.609 118.175 167.906C113.332 169.204 108.348 169.989 103.331 170.212L103.728 178.61C104.075 178.61 104.422 178.568 104.769 178.544C106.315 178.411 107.86 178.354 109.397 178.122L111.703 177.833C112.472 177.725 113.232 177.568 113.993 177.436L114.522 180.37C109.728 181.23 104.86 181.668 99.9917 181.684C95.1236 181.668 90.2554 181.23 85.4616 180.37L85.9906 177.436C86.751 177.568 87.5114 177.725 88.28 177.833L90.586 178.122C92.1151 178.354 93.6689 178.411 95.2145 178.544C95.5616 178.568 95.9088 178.61 96.2559 178.61L96.6526 170.212C91.6357 169.989 86.6518 169.204 81.8084 167.906C76.965 166.609 72.2704 164.782 67.8073 162.484L63.9474 169.948L64.8731 170.419C66.2369 171.155 67.6833 171.725 69.0801 172.386C70.51 172.973 71.9481 173.552 73.4028 174.081L72.3944 176.882C67.8073 175.229 63.3771 173.163 59.1619 170.725C54.9467 168.287 50.9464 165.468 47.2353 162.327L49.1611 160.055C50.3182 161.088 51.5828 161.989 52.7812 162.964C54.0458 163.865 55.2856 164.79 56.5832 165.634L57.4593 166.196L62.0051 159.129C57.7816 156.41 53.8557 153.252 50.2934 149.707C46.7559 146.144 43.5904 142.21 40.8712 137.995L33.8045 142.541L34.3665 143.417C35.2095 144.714 36.1435 145.954 37.0361 147.219C38.0114 148.425 38.9123 149.682 39.9455 150.839L37.6725 152.765C34.5235 149.045 31.7134 145.053 29.2751 140.838C26.8369 136.623 24.7706 132.193 23.1176 127.606L25.9195 126.597C26.4485 128.052 27.027 129.49 27.6139 130.92C28.2751 132.325 28.8371 133.763 29.581 135.127L30.0521 136.053L37.5155 132.193C35.2178 127.738 33.3912 123.035 32.0936 118.192C30.7959 113.348 30.0107 108.364 29.7876 103.347L21.3902 103.744C21.3902 104.091 21.4315 104.438 21.4563 104.786C21.5886 106.331 21.6464 107.877 21.8778 109.414L22.1671 111.72C22.2746 112.489 22.4316 113.249 22.5639 114.009L19.6297 114.538C18.7702 109.745 18.3321 104.876 18.3156 100.008C18.3321 95.1401 18.7702 90.2719 19.6297 85.4781L22.5639 86.0071C22.4316 86.7675 22.2746 87.5279 22.1671 88.2966L21.8778 90.6025C21.6464 92.1316 21.5886 93.6854 21.4563 95.231C21.4315 95.5781 21.3902 95.9253 21.3902 96.2724L29.7876 96.6692C30.0107 91.6522 30.7959 86.6683 32.0936 81.8249C33.3912 76.9816 35.2178 72.287 37.5155 67.8238L30.0521 63.964L29.581 64.8897C28.8454 66.2534 28.2751 67.6998 27.6139 69.0966C27.027 70.5265 26.4485 71.9646 25.9195 73.4193L23.1176 72.4109C24.7706 67.8238 26.8369 63.3937 29.2751 59.1784C31.7134 54.9632 34.5318 50.9629 37.6725 47.2518L39.9455 49.1776C38.9123 50.3347 38.0114 51.5993 37.0361 52.7978C36.1352 54.0623 35.2095 55.3021 34.3665 56.5997L33.8045 57.4758L40.8712 62.0217C43.5904 57.8064 46.7477 53.8722 50.2934 50.3099C53.8557 46.7725 57.7899 43.6069 62.0051 40.8877L57.4593 33.821L56.5832 34.383C55.2856 35.2261 54.0458 36.16 52.7812 37.0527C51.5745 38.0279 50.3182 38.9288 49.1611 39.962L47.2353 37.6891C50.9546 34.54 54.9467 31.7299 59.1619 29.2917C63.3771 26.8535 67.8073 24.7872 72.3944 23.1341L73.4028 25.936C71.9481 26.465 70.51 27.0436 69.0801 27.6304C67.675 28.2916 66.2369 28.8536 64.8731 29.5975L63.9474 30.0686L67.8073 37.532C72.2622 35.2343 76.965 33.4077 81.8084 32.1101C86.6518 30.8125 91.6357 30.0273 96.6526 29.8041L96.2559 21.4067C95.9088 21.4067 95.5616 21.4481 95.2145 21.4729C93.6689 21.6051 92.1233 21.663 90.586 21.8944L88.28 22.1837C87.5114 22.2911 86.751 22.4481 85.9906 22.5804L85.4616 19.6463C90.2554 18.7867 95.1236 18.3486 99.9917 18.3321C104.86 18.3486 109.728 18.7867 114.522 19.6463L113.993 22.5804C113.232 22.4481 112.472 22.2911 111.703 22.1837L109.397 21.8944C107.868 21.663 106.315 21.6051 104.769 21.4729C104.422 21.4481 104.075 21.4067 103.728 21.4067L103.331 29.8041C108.348 30.0273 113.332 30.8125 118.175 32.1101C123.018 33.4077 127.713 35.2343 132.176 37.532L136.036 30.0686L135.11 29.5975C133.747 28.8619 132.3 28.2916 130.903 27.6304C129.474 27.0436 128.035 26.465 126.581 25.936L127.589 23.1341C132.176 24.7872 136.606 26.8535 140.822 29.2917C145.037 31.7299 149.037 34.5483 152.748 37.6891L150.822 39.962C149.665 38.9288 148.401 38.0279 147.202 37.0527C145.938 36.1518 144.698 35.2261 143.4 34.383L142.524 33.821L137.978 40.8877C142.194 43.5986 146.128 46.7642 149.69 50.3099C153.228 53.8722 156.393 57.8064 159.112 62.0217L166.179 57.4758L165.617 56.5997C164.774 55.3021 163.84 54.0623 162.947 52.7978C161.972 51.591 161.071 50.3347 160.038 49.1776L162.311 47.2518C165.46 50.9712 168.27 54.9632 170.708 59.1784C173.147 63.3937 175.213 67.8238 176.866 72.4109L174.064 73.4193C173.535 71.9646 172.956 70.5265 172.37 69.0966C171.708 67.6916 171.146 66.2534 170.403 64.8897L169.931 63.964L162.468 67.8238C164.766 72.2787 166.592 76.9816 167.89 81.8249C169.188 86.6683 169.973 91.6522 170.196 96.6692L178.593 96.2724C178.593 95.9253 178.552 95.5781 178.527 95.231C178.395 93.6854 178.337 92.1399 178.106 90.6025L177.816 88.2966C177.709 87.5279 177.552 86.7675 177.42 86.0071L180.354 85.4781C181.213 90.2719 181.651 95.1401 181.668 100.008C181.651 104.876 181.213 109.745 180.354 114.538L177.42 114.009C177.552 113.249 177.709 112.489 177.816 111.72L178.106 109.414C178.337 107.885 178.395 106.331 178.527 104.786C178.552 104.438 178.593 104.091 178.593 103.744L170.196 103.347Z" fill="url(#paint27_linear)"/>
<path d="M100.025 166.245C63.3854 166.245 33.5813 136.441 33.5813 99.8016C33.5813 63.1622 63.3854 33.3581 100.025 33.3581C136.664 33.3581 166.468 63.1622 166.468 99.8016C166.468 136.441 136.664 166.245 100.025 166.245ZM100.025 35.0112C64.2946 35.0112 35.2343 64.0797 35.2343 99.8016C35.2343 135.524 64.3028 164.592 100.025 164.592C135.747 164.592 164.815 135.524 164.815 99.8016C164.815 64.0797 135.755 35.0112 100.025 35.0112Z" fill="url(#paint28_linear)"/>
<path d="M98.5949 162.518C98.1403 162.509 97.7767 162.129 97.7849 161.675C97.7932 161.22 98.1734 160.856 98.628 160.865C99.0908 160.873 99.4462 161.253 99.438 161.708C99.4297 162.162 99.0578 162.518 98.6115 162.518C98.6032 162.518 98.6032 162.518 98.5949 162.518ZM103.587 161.617C103.554 161.154 103.901 160.765 104.356 160.732C104.81 160.699 105.207 161.038 105.24 161.501C105.265 161.956 104.926 162.344 104.471 162.377C104.447 162.377 104.43 162.385 104.414 162.385C103.984 162.385 103.62 162.046 103.587 161.617ZM92.7267 162.113C92.2721 162.063 91.9497 161.65 92.0076 161.195C92.0572 160.749 92.4622 160.418 92.9168 160.476C93.3714 160.526 93.702 160.931 93.6441 161.385C93.5945 161.807 93.2391 162.121 92.8259 162.121C92.7928 162.121 92.7597 162.121 92.7267 162.113ZM109.356 161.013C109.282 160.567 109.588 160.137 110.042 160.063C110.488 159.988 110.918 160.294 110.993 160.749C111.067 161.195 110.761 161.625 110.307 161.699C110.265 161.708 110.216 161.708 110.174 161.708C109.778 161.708 109.422 161.418 109.356 161.013ZM86.9245 161.162C86.4782 161.071 86.1972 160.633 86.2881 160.187C86.3873 159.74 86.8254 159.451 87.2717 159.55C87.718 159.641 87.999 160.079 87.9081 160.526C87.8254 160.914 87.4866 161.187 87.0981 161.187C87.0403 161.187 86.9824 161.179 86.9245 161.162ZM115.051 159.881C114.935 159.435 115.191 158.988 115.638 158.873C116.076 158.749 116.53 159.013 116.646 159.459C116.762 159.898 116.497 160.352 116.059 160.468C115.985 160.484 115.919 160.493 115.844 160.493C115.481 160.493 115.142 160.253 115.051 159.881ZM81.2381 159.674C80.8083 159.534 80.5604 159.071 80.7009 158.641C80.8331 158.203 81.3042 157.955 81.734 158.096C82.1721 158.228 82.4118 158.699 82.2795 159.129C82.1638 159.484 81.8415 159.707 81.4861 159.707C81.4034 159.707 81.3208 159.699 81.2381 159.674ZM120.605 158.211C120.448 157.782 120.663 157.311 121.093 157.153C121.522 156.996 122.002 157.211 122.159 157.641C122.316 158.071 122.093 158.542 121.663 158.699C121.572 158.732 121.473 158.749 121.382 158.749C121.043 158.749 120.729 158.542 120.605 158.211ZM75.717 157.649C75.2955 157.476 75.0971 156.988 75.279 156.567C75.4525 156.145 75.9402 155.947 76.3617 156.129C76.7832 156.302 76.9816 156.79 76.7997 157.211C76.6675 157.525 76.3617 157.716 76.0393 157.716C75.9319 157.716 75.8245 157.691 75.717 157.649ZM125.977 156.029C125.779 155.616 125.953 155.12 126.366 154.922C126.779 154.732 127.275 154.905 127.473 155.31C127.663 155.724 127.49 156.22 127.085 156.418C126.969 156.467 126.845 156.501 126.729 156.501C126.415 156.501 126.118 156.327 125.977 156.029ZM70.4108 155.12C70.0058 154.905 69.857 154.401 70.0719 153.996C70.2868 153.599 70.791 153.442 71.196 153.657C71.5927 153.872 71.7497 154.376 71.5266 154.781C71.3778 155.054 71.0968 155.219 70.7992 155.219C70.667 155.219 70.5348 155.186 70.4108 155.12ZM131.127 153.352C130.887 152.955 131.019 152.451 131.408 152.211C131.796 151.98 132.308 152.103 132.54 152.5C132.78 152.889 132.647 153.393 132.259 153.633C132.127 153.707 131.978 153.748 131.837 153.748C131.556 153.748 131.284 153.608 131.127 153.352ZM65.369 152.095C64.9888 151.847 64.8814 151.335 65.1376 150.955C65.3856 150.574 65.898 150.467 66.2782 150.723C66.6584 150.971 66.7659 151.484 66.5096 151.864C66.3526 152.103 66.0881 152.236 65.8236 152.236C65.6666 152.236 65.5095 152.194 65.369 152.095ZM135.995 150.194C135.73 149.831 135.805 149.31 136.177 149.037C136.54 148.773 137.061 148.847 137.334 149.219C137.598 149.583 137.524 150.103 137.152 150.376C137.003 150.484 136.838 150.533 136.664 150.533C136.408 150.533 136.16 150.417 135.995 150.194ZM60.6248 148.616C60.2694 148.335 60.2116 147.814 60.5009 147.458C60.7901 147.103 61.3109 147.045 61.6663 147.334C62.0217 147.624 62.0795 148.144 61.7902 148.5C61.6249 148.698 61.3852 148.806 61.1456 148.806C60.9637 148.806 60.7819 148.74 60.6248 148.616ZM140.557 146.607C140.251 146.26 140.284 145.739 140.623 145.442C140.962 145.136 141.483 145.161 141.789 145.508C142.094 145.847 142.061 146.367 141.722 146.673C141.565 146.814 141.367 146.88 141.177 146.88C140.946 146.88 140.722 146.789 140.557 146.607ZM56.2278 144.714C55.9054 144.392 55.8972 143.871 56.2195 143.549C56.5336 143.218 57.0626 143.21 57.3849 143.533C57.7155 143.847 57.7155 144.376 57.4014 144.698C57.2361 144.863 57.0212 144.946 56.8064 144.946C56.5997 144.946 56.3931 144.871 56.2278 144.714ZM144.756 142.607C144.425 142.293 144.409 141.772 144.714 141.433C145.029 141.103 145.549 141.086 145.888 141.392C146.219 141.706 146.235 142.227 145.929 142.566C145.764 142.739 145.541 142.822 145.318 142.822C145.119 142.822 144.921 142.756 144.756 142.607ZM52.2192 140.417C51.9216 140.069 51.963 139.549 52.3101 139.251C52.6572 138.954 53.1779 138.995 53.4755 139.342V139.35C53.773 139.698 53.7317 140.218 53.3846 140.516C53.2275 140.648 53.0374 140.706 52.8473 140.706C52.6159 140.706 52.3845 140.607 52.2192 140.417ZM148.566 138.226C148.211 137.954 148.144 137.433 148.417 137.069C148.698 136.706 149.219 136.639 149.583 136.92C149.938 137.201 150.012 137.722 149.731 138.078C149.566 138.292 149.326 138.4 149.078 138.4C148.897 138.4 148.723 138.342 148.566 138.226ZM48.6239 135.763C48.3594 135.391 48.4503 134.879 48.8222 134.614C49.2024 134.35 49.7149 134.441 49.9793 134.813C50.2356 135.193 50.1446 135.705 49.7727 135.97C49.6322 136.069 49.4669 136.119 49.3016 136.119C49.0371 136.119 48.7809 135.995 48.6239 135.763ZM151.963 133.515C151.575 133.275 151.459 132.763 151.698 132.375C151.946 131.994 152.459 131.879 152.839 132.118C153.228 132.366 153.343 132.879 153.104 133.259C152.947 133.507 152.674 133.647 152.401 133.647C152.252 133.647 152.095 133.606 151.963 133.515ZM45.4748 130.796C45.2517 130.399 45.3922 129.895 45.7889 129.672C46.1856 129.449 46.6898 129.581 46.913 129.978C47.1444 130.374 47.0039 130.879 46.6072 131.11C46.4749 131.184 46.3344 131.217 46.1939 131.217C45.9129 131.217 45.6319 131.069 45.4748 130.796ZM154.897 128.515C154.484 128.3 154.327 127.804 154.533 127.399C154.732 126.994 155.236 126.829 155.641 127.035C156.046 127.242 156.211 127.738 156.005 128.151C155.856 128.432 155.567 128.597 155.269 128.597C155.137 128.597 155.013 128.573 154.897 128.515ZM42.8135 125.556C42.6234 125.143 42.8052 124.655 43.2267 124.465C43.64 124.275 44.1276 124.465 44.3177 124.878C44.5078 125.291 44.3177 125.787 43.9045 125.969C43.797 126.019 43.6813 126.043 43.5656 126.043C43.2515 126.043 42.9457 125.862 42.8135 125.556ZM157.344 123.25C156.914 123.085 156.707 122.605 156.872 122.175C157.046 121.754 157.525 121.547 157.947 121.713C158.377 121.878 158.583 122.357 158.418 122.787C158.286 123.109 157.972 123.308 157.641 123.308C157.542 123.308 157.443 123.291 157.344 123.25ZM40.648 120.093C40.4992 119.663 40.7306 119.192 41.1687 119.043C41.5985 118.894 42.0696 119.126 42.2184 119.555C42.3589 119.985 42.1357 120.456 41.6977 120.605C41.615 120.638 41.5241 120.655 41.4332 120.655C41.086 120.655 40.772 120.431 40.648 120.093ZM159.286 117.787C158.848 117.654 158.592 117.2 158.716 116.762C158.848 116.324 159.302 116.067 159.74 116.191C160.179 116.324 160.435 116.778 160.311 117.216C160.203 117.58 159.873 117.82 159.509 117.82C159.435 117.82 159.36 117.803 159.286 117.787ZM39.0115 114.439C38.9123 114.001 39.1851 113.555 39.6231 113.447C40.0694 113.34 40.5158 113.613 40.6232 114.059C40.7306 114.505 40.4579 114.952 40.0116 115.051C39.9455 115.067 39.8793 115.076 39.8132 115.076C39.4413 115.076 39.1024 114.819 39.0115 114.439ZM160.699 112.158C160.253 112.067 159.964 111.637 160.046 111.191C160.129 110.745 160.559 110.447 161.005 110.53C161.46 110.612 161.749 111.05 161.666 111.497C161.592 111.894 161.245 112.175 160.856 112.175C160.807 112.175 160.757 112.166 160.699 112.158ZM37.9205 108.67C37.8544 108.216 38.1684 107.802 38.623 107.736C39.0776 107.67 39.4909 107.984 39.557 108.439C39.6231 108.893 39.309 109.307 38.8545 109.373C38.8131 109.381 38.7718 109.381 38.7387 109.381C38.3337 109.381 37.9784 109.083 37.9205 108.67ZM161.584 106.422C161.129 106.381 160.798 105.976 160.84 105.521C160.881 105.067 161.286 104.736 161.741 104.777C162.195 104.819 162.526 105.224 162.485 105.678C162.443 106.108 162.088 106.43 161.666 106.43C161.641 106.43 161.608 106.422 161.584 106.422ZM37.3667 102.818C37.3502 102.364 37.6973 101.975 38.1602 101.951C38.6148 101.926 38.995 102.281 39.0198 102.736C39.0446 103.19 38.6892 103.579 38.2346 103.604C38.218 103.604 38.2098 103.604 38.1932 103.604C37.7552 103.604 37.3915 103.256 37.3667 102.818ZM161.104 99.8099C161.104 99.7851 161.104 99.7603 161.104 99.7438C161.104 99.719 161.104 99.6942 161.104 99.6611C161.104 99.2066 161.468 98.8346 161.931 98.8346C162.385 98.8346 162.757 99.2066 162.757 99.6611C162.757 99.6859 162.757 99.7107 162.749 99.7355C162.757 99.7603 162.757 99.7851 162.757 99.8099C162.757 100.264 162.385 100.636 161.931 100.636C161.476 100.636 161.104 100.264 161.104 99.8099ZM38.1519 97.8015C37.6973 97.7849 37.3419 97.3965 37.3585 96.9419C37.3833 96.479 37.7717 96.1319 38.2263 96.1484C38.6809 96.1732 39.0363 96.5534 39.0115 97.0163C38.995 97.4543 38.623 97.8015 38.185 97.8015C38.1767 97.8015 38.1602 97.8015 38.1519 97.8015ZM160.823 93.9499C160.782 93.4953 161.112 93.0903 161.567 93.049C162.022 92.9994 162.427 93.3383 162.468 93.7929C162.518 94.2475 162.179 94.6442 161.724 94.6938C161.699 94.6938 161.675 94.6938 161.65 94.6938C161.228 94.6938 160.865 94.3797 160.823 93.9499ZM38.6065 92.0159C38.1519 91.958 37.8378 91.5365 37.8957 91.0819C37.9618 90.6356 38.3833 90.3215 38.8297 90.3794C39.2842 90.4455 39.5983 90.8588 39.5405 91.3133C39.4826 91.7266 39.1272 92.0241 38.7139 92.0241C38.6809 92.0241 38.6396 92.0241 38.6065 92.0159ZM160.021 88.28C159.931 87.8337 160.228 87.3957 160.674 87.313C161.121 87.2304 161.551 87.5196 161.641 87.9742C161.724 88.4205 161.435 88.8503 160.98 88.933C160.931 88.9495 160.881 88.9495 160.831 88.9495C160.443 88.9495 160.096 88.6768 160.021 88.28ZM39.5983 86.3047C39.152 86.1972 38.8792 85.7509 38.9867 85.3046C39.0859 84.8665 39.5322 84.5855 39.9785 84.693C40.4248 84.8004 40.6976 85.2385 40.5901 85.6848C40.4992 86.065 40.1603 86.3212 39.7884 86.3212C39.7223 86.3212 39.6562 86.3212 39.5983 86.3047ZM158.683 82.7176C158.55 82.2795 158.807 81.8167 159.245 81.6927C159.683 81.5687 160.137 81.8167 160.269 82.2547C160.393 82.6928 160.137 83.1474 159.707 83.2796C159.625 83.3044 159.55 83.3127 159.476 83.3127C159.112 83.3127 158.782 83.0813 158.683 82.7176ZM41.1191 80.7009C40.6893 80.5604 40.4579 80.0893 40.6067 79.6595C40.7554 79.2214 41.2183 78.99 41.6563 79.1388C42.0861 79.2875 42.3176 79.7504 42.1688 80.1884C42.0531 80.5273 41.7307 80.7505 41.3836 80.7505C41.3009 80.7505 41.21 80.734 41.1191 80.7009ZM156.823 77.3039C156.658 76.8741 156.864 76.3948 157.286 76.2295C157.716 76.0641 158.195 76.2708 158.36 76.6923C158.526 77.1138 158.319 77.5932 157.897 77.7668C157.798 77.8081 157.691 77.8246 157.592 77.8246C157.261 77.8246 156.955 77.6263 156.823 77.3039ZM43.1689 75.2707C42.7556 75.0889 42.5655 74.6012 42.7556 74.1797C42.9374 73.7664 43.4251 73.5763 43.8466 73.7664C44.2599 73.9483 44.45 74.4442 44.2599 74.8574C44.1276 75.1632 43.8218 75.3451 43.5077 75.3451C43.392 75.3451 43.2763 75.3203 43.1689 75.2707ZM154.467 72.0886C154.261 71.6836 154.418 71.1794 154.823 70.9728C155.236 70.7662 155.732 70.9315 155.939 71.3365C156.145 71.7415 155.988 72.2374 155.575 72.444C155.459 72.5101 155.327 72.5349 155.203 72.5349C154.905 72.5349 154.616 72.3696 154.467 72.0886ZM45.7228 70.0636C45.3261 69.8322 45.1856 69.328 45.4087 68.9313C45.6319 68.5346 46.136 68.3941 46.5328 68.6255C46.9295 68.8487 47.07 69.3528 46.8469 69.7496C46.6898 70.0141 46.4171 70.1711 46.1278 70.1711C45.9873 70.1711 45.8468 70.1298 45.7228 70.0636ZM151.632 67.113C151.384 66.7328 151.5 66.2204 151.88 65.9724C152.269 65.7327 152.781 65.8402 153.021 66.2286C153.269 66.6171 153.153 67.1295 152.773 67.3692C152.632 67.4601 152.475 67.5014 152.327 67.5014C152.054 67.5014 151.789 67.3609 151.632 67.113ZM48.7478 65.1128C48.3759 64.8483 48.285 64.3359 48.5412 63.9557C48.8057 63.5838 49.3181 63.4929 49.6901 63.7573C50.0703 64.0136 50.1612 64.526 49.8967 64.9062C49.7397 65.1376 49.4834 65.2616 49.2189 65.2616C49.0536 65.2616 48.8883 65.212 48.7478 65.1128ZM148.335 62.4349C148.054 62.0713 148.12 61.5505 148.483 61.2695C148.847 60.9968 149.368 61.0546 149.64 61.4183C149.921 61.782 149.855 62.3027 149.5 62.5837C149.343 62.6994 149.169 62.7573 148.996 62.7573C148.748 62.7573 148.5 62.6415 148.335 62.4349ZM52.2275 60.4678C51.8803 60.1703 51.8307 59.6496 52.1283 59.3024C52.4258 58.947 52.9465 58.9057 53.2937 59.2032C53.6408 59.5008 53.6821 60.0215 53.3928 60.3686C53.2275 60.5587 52.9961 60.6579 52.7564 60.6579C52.5663 60.6579 52.3762 60.6001 52.2275 60.4678ZM144.624 58.0709C144.309 57.7403 144.326 57.2196 144.665 56.9055C144.995 56.5915 145.516 56.608 145.83 56.9469C146.144 57.2775 146.128 57.7982 145.789 58.1122C145.632 58.261 145.434 58.3354 145.227 58.3354C145.004 58.3354 144.789 58.2528 144.624 58.0709ZM56.1203 56.1617C55.798 55.8311 55.8063 55.3104 56.1286 54.9963C56.4592 54.6739 56.9799 54.6822 57.3023 55.0046C57.6163 55.3352 57.6163 55.8559 57.2857 56.1782C57.1287 56.3352 56.9221 56.4096 56.7072 56.4096C56.4923 56.4096 56.2774 56.327 56.1203 56.1617ZM140.524 54.0789C140.177 53.7813 140.144 53.2606 140.45 52.9135C140.755 52.5746 141.276 52.5415 141.615 52.8473C141.962 53.1449 141.987 53.6656 141.689 54.0127C141.524 54.1946 141.293 54.2938 141.07 54.2938C140.871 54.2938 140.681 54.2194 140.524 54.0789ZM60.3934 52.244C60.1124 51.8886 60.162 51.3679 60.5174 51.0786C60.8728 50.7893 61.3935 50.8472 61.6828 51.2026C61.9721 51.558 61.9142 52.0704 61.5588 52.3597C61.41 52.4837 61.2199 52.5498 61.0381 52.5498C60.7984 52.5498 60.5587 52.4424 60.3934 52.244ZM136.061 50.4918C135.697 50.219 135.615 49.6983 135.887 49.3347C136.152 48.9627 136.672 48.8801 137.036 49.1528C137.408 49.4256 137.491 49.938 137.218 50.3099C137.053 50.5331 136.805 50.6488 136.548 50.6488C136.383 50.6488 136.21 50.5992 136.061 50.4918ZM65.0219 48.7396C64.7657 48.3594 64.8731 47.8469 65.2533 47.5907C65.6335 47.3345 66.146 47.4419 66.3939 47.8221C66.6501 48.2023 66.551 48.7148 66.1708 48.9627C66.0303 49.0619 65.865 49.1032 65.7079 49.1032C65.4434 49.1032 65.1789 48.9793 65.0219 48.7396ZM131.292 47.3262C130.895 47.0948 130.771 46.5824 131.003 46.1939C131.242 45.7972 131.746 45.6732 132.135 45.9046C132.532 46.1443 132.656 46.6485 132.424 47.0369C132.267 47.3014 131.994 47.4419 131.713 47.4419C131.573 47.4419 131.424 47.4089 131.292 47.3262ZM69.9562 45.6815C69.733 45.2765 69.8901 44.7806 70.2868 44.5574C70.6918 44.3425 71.1877 44.4913 71.4109 44.8963C71.6258 45.293 71.477 45.7972 71.072 46.0121C70.948 46.0865 70.8158 46.1113 70.6835 46.1113C70.386 46.1113 70.105 45.9542 69.9562 45.6815ZM126.242 44.6235C125.829 44.4334 125.655 43.9375 125.853 43.5243C126.052 43.111 126.539 42.9374 126.953 43.1358C127.366 43.3259 127.539 43.8218 127.349 44.2351C127.201 44.5326 126.903 44.7062 126.597 44.7062C126.482 44.7062 126.358 44.6814 126.242 44.6235ZM75.1467 43.0945C74.9731 42.6812 75.1632 42.1936 75.5848 42.02C76.0063 41.8382 76.4939 42.0365 76.6758 42.4581C76.8493 42.8713 76.651 43.359 76.2295 43.5408H76.2377C76.1303 43.5821 76.0228 43.6069 75.9154 43.6069C75.593 43.6069 75.279 43.4168 75.1467 43.0945ZM120.96 42.4085C120.531 42.2514 120.316 41.7803 120.473 41.3505C120.622 40.9207 121.101 40.7058 121.531 40.8629C121.96 41.0117 122.184 41.491 122.027 41.9208C121.903 42.2514 121.58 42.4581 121.25 42.4581C121.151 42.4581 121.06 42.4498 120.96 42.4085ZM80.5686 41.0199C80.4281 40.5819 80.6678 40.119 81.1059 39.9785C81.5357 39.8463 82.0068 40.086 82.139 40.524C82.2795 40.9538 82.0398 41.4166 81.6018 41.5572C81.5191 41.582 81.4365 41.5985 81.3538 41.5985C80.9984 41.5985 80.6761 41.3671 80.5686 41.0199ZM115.497 40.7058C115.059 40.5901 114.795 40.1438 114.91 39.6975C115.026 39.2594 115.472 38.995 115.919 39.1107C116.357 39.2181 116.621 39.6727 116.506 40.1108C116.415 40.4827 116.076 40.7306 115.712 40.7306C115.638 40.7306 115.572 40.7224 115.497 40.7058ZM86.1559 39.4578C86.0567 39.0115 86.3377 38.5734 86.784 38.4743C87.2304 38.3833 87.6684 38.6644 87.7676 39.1107C87.8668 39.557 87.5775 39.995 87.1312 40.0942C87.0733 40.1025 87.0155 40.1108 86.9576 40.1108C86.5774 40.1108 86.2385 39.8463 86.1559 39.4578ZM109.902 39.5239C109.447 39.4495 109.141 39.028 109.216 38.5734C109.29 38.1271 109.712 37.8213 110.166 37.8874C110.166 37.8874 110.166 37.8874 110.166 37.8957C110.612 37.9618 110.918 38.3916 110.852 38.8379C110.786 39.2429 110.431 39.5322 110.034 39.5322C109.993 39.5322 109.943 39.5322 109.902 39.5239ZM91.8671 38.4329C91.8092 37.9783 92.1316 37.5651 92.5862 37.5155C93.0407 37.4576 93.454 37.7882 93.5036 38.2346C93.5532 38.6892 93.2309 39.1024 92.7763 39.152H92.7845C92.7515 39.1603 92.7184 39.1603 92.6853 39.1603C92.2721 39.1603 91.9084 38.8545 91.8671 38.4329ZM104.215 38.871C103.761 38.8379 103.414 38.4495 103.447 37.9949C103.48 37.532 103.868 37.1932 104.323 37.218C104.777 37.251 105.124 37.6477 105.091 38.1023C105.067 38.5404 104.703 38.871 104.273 38.871C104.248 38.871 104.232 38.871 104.215 38.871ZM97.6444 37.9453C97.6279 37.4907 97.9916 37.1105 98.4462 37.094C98.9007 37.0857 99.2809 37.4494 99.2975 37.904C99.3057 38.3585 98.9503 38.7387 98.4875 38.747C98.4792 38.747 98.4792 38.747 98.471 38.747C98.0246 38.747 97.6527 38.3916 97.6444 37.9453Z" fill="url(#paint29_linear)"/>
<path d="M101.694 72.6093C101.694 75.2624 100.934 77.4114 100 77.4114C99.0661 77.4114 98.3057 75.2624 98.3057 72.6093C98.3057 69.9562 99.0661 67.8073 100 67.8073C100.934 67.8073 101.694 69.9562 101.694 72.6093ZM101.694 127.391C101.694 124.738 100.934 122.589 100 122.589C99.0661 122.589 98.3057 124.738 98.3057 127.391C98.3057 130.044 99.0661 132.193 100 132.193C100.934 132.193 101.694 130.044 101.694 127.391ZM132.193 100C132.193 99.066 130.044 98.3056 127.391 98.3056C124.738 98.3056 122.589 99.066 122.589 100C122.589 100.934 124.738 101.694 127.391 101.694C130.044 101.694 132.193 100.934 132.193 100ZM72.6094 101.694C75.2625 101.694 77.4114 100.934 77.4114 100C77.4114 99.066 75.2625 98.3056 72.6094 98.3056C69.9563 98.3056 67.8073 99.066 67.8073 100C67.8073 100.934 69.9563 101.694 72.6094 101.694ZM122.762 77.2378C122.101 76.5766 120.043 77.5601 118.167 79.4363C116.291 81.3125 115.307 83.3705 115.968 84.0317C116.63 84.6929 118.688 83.7094 120.564 81.8332C122.44 79.957 123.424 77.899 122.762 77.2378ZM81.8333 120.564C83.7095 118.687 84.693 116.629 84.0318 115.968C83.3706 115.307 81.3126 116.291 79.4364 118.167C77.5602 120.043 76.5766 122.101 77.2379 122.762C77.8991 123.423 79.9571 122.44 81.8333 120.564ZM122.762 122.762C123.424 122.101 122.44 120.043 120.564 118.167C118.688 116.291 116.63 115.307 115.968 115.968C115.307 116.629 116.291 118.687 118.167 120.564C120.043 122.44 122.101 123.423 122.762 122.762ZM79.4364 81.8332C81.3126 83.7094 83.3706 84.6929 84.0318 84.0317C84.693 83.3705 83.7095 81.3125 81.8333 79.4363C79.9571 77.5601 77.8991 76.5766 77.2379 77.2378C76.5766 77.899 77.5602 79.957 79.4364 81.8332ZM107.91 66.4187C106.935 66.1873 105.612 68.2453 104.959 71.0141C104.306 73.783 104.571 76.2046 105.546 76.4361C106.521 76.6675 107.844 74.6095 108.497 71.8406C109.15 69.0718 108.885 66.6501 107.91 66.4187ZM95.041 128.994C95.6939 126.225 95.4294 123.804 94.4542 123.572C93.4789 123.341 92.1564 125.399 91.5035 128.168C90.8506 130.936 91.115 133.358 92.0903 133.59C93.0656 133.813 94.388 131.755 95.041 128.994ZM133.581 107.91C133.813 106.934 131.755 105.612 128.986 104.959C126.217 104.306 123.795 104.571 123.564 105.546C123.333 106.521 125.391 107.844 128.159 108.497C130.928 109.15 133.35 108.885 133.581 107.91ZM71.0059 95.0409C73.7748 95.6939 76.1965 95.4294 76.4279 94.4541C76.6593 93.4788 74.6013 92.1564 71.8325 91.5034C69.0636 90.8505 66.6419 91.115 66.4105 92.0902C66.1874 93.0655 68.2454 94.388 71.0059 95.0409ZM129.341 81.8415C128.812 80.9902 126.424 81.5109 124.01 83.0069C121.597 84.5028 120.06 86.4038 120.589 87.2551C121.118 88.1064 123.506 87.5858 125.92 86.0898C128.333 84.602 129.862 82.701 129.341 81.8415ZM75.9898 116.993C78.4032 115.497 79.9406 113.596 79.4116 112.745C78.8826 111.894 76.494 112.414 74.0806 113.91C71.6672 115.406 70.1298 117.307 70.6588 118.159C71.1878 119.01 73.5764 118.489 75.9898 116.993ZM118.159 129.341C119.01 128.812 118.489 126.424 116.993 124.01C115.497 121.597 113.596 120.06 112.745 120.588C111.894 121.117 112.414 123.506 113.91 125.92C115.398 128.333 117.299 129.862 118.159 129.341ZM83.0069 75.9897C84.5029 78.4032 86.4039 79.9405 87.2552 79.4115C88.1065 78.8826 87.5858 76.4939 86.0898 74.0805C84.5938 71.6671 82.6929 70.1298 81.8415 70.6587C80.9902 71.1877 81.5109 73.5763 83.0069 75.9897ZM118.58 68.3032C117.663 67.7659 115.671 69.4438 114.142 72.0555C112.613 74.6673 112.117 77.2213 113.042 77.7585C113.96 78.2957 115.952 76.6179 117.481 74.0061C119.01 71.3943 119.506 68.8404 118.58 68.3032ZM85.8584 127.953C87.3875 125.341 87.8834 122.787 86.9577 122.25C86.0402 121.713 84.0483 123.39 82.5193 126.002C80.9902 128.614 80.4943 131.168 81.42 131.705C82.3375 132.242 84.3294 130.565 85.8584 127.953ZM131.705 118.58C132.242 117.663 130.565 115.671 127.953 114.142C125.341 112.613 122.787 112.117 122.25 113.042C121.713 113.96 123.39 115.952 126.002 117.481C128.606 119.01 131.16 119.506 131.705 118.58ZM72.0473 85.8583C74.6591 87.3874 77.2131 87.8833 77.7503 86.9576C78.2875 86.0402 76.6097 84.0483 73.9979 82.5192C71.3861 80.9902 68.8322 80.4943 68.295 81.4199C67.7577 82.3374 69.4356 84.3293 72.0473 85.8583ZM135.557 90.7182C135.284 89.6851 132.697 89.4702 129.763 90.2306C126.837 90.991 124.68 92.4539 124.953 93.4871C125.225 94.5202 127.812 94.7351 130.746 93.9747C133.672 93.2143 135.821 91.7596 135.557 90.7182ZM70.2373 109.769C73.1631 109.009 75.3204 107.546 75.0476 106.513C74.7749 105.48 72.1879 105.265 69.2537 106.025C66.3279 106.786 64.1707 108.249 64.4434 109.282C64.7162 110.315 67.3114 110.53 70.2373 109.769ZM109.274 135.557C110.307 135.284 110.522 132.697 109.761 129.763C109.001 126.837 107.538 124.68 106.505 124.952C105.472 125.225 105.257 127.812 106.017 130.746C106.786 133.672 108.24 135.821 109.274 135.557ZM90.2307 70.2372C90.9911 73.1631 92.454 75.3203 93.4871 75.0475C94.5203 74.7748 94.7352 72.1878 93.9748 69.2537C93.2144 66.3278 91.7515 64.1706 90.7183 64.4433C89.6852 64.7161 89.4703 67.3113 90.2307 70.2372ZM129.292 64.2532C128.25 63.4019 125.457 65.0963 123.043 68.0387C120.63 70.9811 119.514 74.0557 120.555 74.907C121.597 75.7583 124.391 74.064 126.804 71.1216C129.217 68.1792 130.333 65.1045 129.292 64.2532ZM76.9568 131.961C79.3703 129.019 80.4861 125.944 79.4447 125.093C78.4032 124.242 75.6096 125.936 73.1962 128.878C70.7828 131.821 69.667 134.895 70.7084 135.747C71.7498 136.598 74.5434 134.904 76.9568 131.961ZM135.747 129.292C136.598 128.25 134.904 125.457 131.961 123.043C129.019 120.63 125.944 119.514 125.093 120.555C124.242 121.597 125.936 124.39 128.878 126.804C131.821 129.217 134.896 130.333 135.747 129.292ZM68.0388 76.9568C70.9811 79.3702 74.0558 80.486 74.9071 79.4446C75.7584 78.4032 74.064 75.6095 71.1217 73.1961C68.1793 70.7827 65.1046 69.6669 64.2533 70.7083C63.402 71.7497 65.0964 74.5433 68.0388 76.9568ZM145.987 95.4376C145.855 94.0987 142.673 93.3218 138.888 93.6937C135.102 94.0656 132.135 95.4542 132.267 96.7931C132.399 98.1321 135.582 98.909 139.367 98.5371C143.161 98.1569 146.12 96.7766 145.987 95.4376ZM61.1126 106.306C64.898 105.934 67.8652 104.546 67.7329 103.207C67.6007 101.868 64.4186 101.091 60.6332 101.471C56.8477 101.843 53.8806 103.232 54.0128 104.571C54.145 105.901 57.3189 106.678 61.1126 106.306ZM104.562 145.987C105.901 145.855 106.678 142.673 106.306 138.888C105.934 135.102 104.546 132.135 103.207 132.267C101.868 132.399 101.091 135.581 101.463 139.367C101.835 143.161 103.223 146.12 104.562 145.987ZM93.6938 61.1125C94.0657 64.8979 95.4542 67.8651 96.7932 67.7329C98.1321 67.6006 98.9091 64.4185 98.5371 60.6331C98.1652 56.8477 96.7767 53.8805 95.4377 54.0127C94.0988 54.145 93.3218 57.3188 93.6938 61.1125ZM141.739 80.1554C141.161 78.9404 137.904 79.2875 134.474 80.9158C131.036 82.5523 128.721 84.8582 129.292 86.0732C129.87 87.2882 133.127 86.9411 136.557 85.3128C139.995 83.6763 142.318 81.3704 141.739 80.1554ZM65.5344 119.084C68.9727 117.448 71.287 115.142 70.7167 113.927C70.1381 112.712 66.8816 113.059 63.4516 114.687C60.0133 116.324 57.6991 118.63 58.2694 119.845C58.8396 121.06 62.0961 120.721 65.5344 119.084ZM119.845 141.739C121.06 141.16 120.713 137.904 119.084 134.474C117.448 131.036 115.142 128.721 113.927 129.292C112.712 129.87 113.059 133.127 114.687 136.557C116.324 139.995 118.63 142.309 119.845 141.739ZM80.9159 65.5343C82.5523 68.9726 84.8583 71.2869 86.0733 70.7166C87.2883 70.138 86.9411 66.8816 85.3129 63.4515C83.6764 60.0132 81.3704 57.699 80.1555 58.2693C78.9405 58.8396 79.2794 62.096 80.9159 65.5343ZM143.549 115.481C143.995 114.216 141.458 112.158 137.871 110.877C134.284 109.604 131.011 109.596 130.565 110.86C130.118 112.125 132.656 114.183 136.243 115.464C139.822 116.737 143.095 116.745 143.549 115.481ZM62.1374 89.1231C65.7245 90.3959 68.9975 90.4042 69.4438 89.1396C69.8901 87.875 67.3527 85.817 63.7657 84.5359C60.1786 83.2631 56.9056 83.2548 56.4593 84.5194C56.0047 85.7839 58.5504 87.8502 62.1374 89.1231ZM84.5195 143.549C85.784 143.995 87.842 141.458 89.1231 137.871C90.396 134.284 90.4042 131.011 89.1397 130.565C87.8751 130.118 85.8171 132.656 84.536 136.243C83.2632 139.821 83.2549 143.094 84.5195 143.549ZM110.877 62.1374C109.604 65.7244 109.596 68.9974 110.86 69.4437C112.125 69.8901 114.183 67.3527 115.464 63.7656C116.737 60.1785 116.745 56.9055 115.481 56.4592C114.216 56.0046 112.158 58.5503 110.877 62.1374ZM110.265 75.188C109.546 74.8905 108.273 76.3038 107.43 78.3453C106.587 80.3868 106.488 82.2878 107.207 82.5853C107.926 82.8829 109.199 81.4695 110.042 79.428C110.885 77.3866 110.984 75.4938 110.265 75.188ZM92.578 121.646C93.421 119.605 93.5202 117.704 92.8011 117.406C92.0821 117.109 90.8092 118.522 89.9662 120.564C89.1231 122.605 89.024 124.506 89.743 124.804C90.4621 125.11 91.7267 123.688 92.578 121.646ZM124.812 110.265C125.11 109.546 123.696 108.273 121.655 107.43C119.613 106.587 117.712 106.488 117.415 107.207C117.117 107.926 118.531 109.199 120.572 110.042C122.614 110.885 124.506 110.984 124.812 110.265ZM78.3537 92.5779C80.3951 93.4209 82.2961 93.5201 82.5937 92.8011C82.8912 92.082 81.4779 90.8092 79.4364 89.9661C77.3949 89.1231 75.4939 89.0239 75.1964 89.743C74.8906 90.462 76.3122 91.7266 78.3537 92.5779ZM124.796 89.7182C124.498 88.9991 122.597 89.0983 120.555 89.9496C118.514 90.7926 117.101 92.0655 117.398 92.7845C117.696 93.5036 119.597 93.4044 121.638 92.5531C123.68 91.7101 125.093 90.4372 124.796 89.7182ZM79.4447 110.059C81.4861 109.216 82.8995 107.943 82.6019 107.224C82.3044 106.505 80.4034 106.604 78.3619 107.455C76.3204 108.298 74.9071 109.571 75.2046 110.29C75.5022 111.009 77.4032 110.902 79.4447 110.059ZM110.282 124.795C111.001 124.498 110.902 122.597 110.05 120.555C109.207 118.514 107.935 117.101 107.216 117.398C106.496 117.696 106.596 119.597 107.447 121.638C108.29 123.68 109.563 125.093 110.282 124.795ZM89.9414 79.4446C90.7844 81.4861 92.0573 82.8994 92.7763 82.6019C93.4954 82.3043 93.3962 80.4033 92.5449 78.3618C91.7019 76.3204 90.429 74.907 89.71 75.2046C88.9909 75.5021 89.0983 77.3948 89.9414 79.4446ZM112.877 81.1803C112.332 80.8083 111.026 81.7588 109.968 83.3127C108.91 84.8665 108.488 86.4204 109.042 86.8006C109.588 87.1725 110.894 86.222 111.951 84.6682C113.009 83.1143 113.423 81.5522 112.877 81.1803ZM90.0323 116.696C91.0902 115.142 91.5118 113.588 90.958 113.208C90.4125 112.836 89.1066 113.786 88.0487 115.34C86.9907 116.894 86.5692 118.448 87.123 118.828C87.6685 119.2 88.9744 118.241 90.0323 116.696ZM118.82 112.877C119.192 112.332 118.241 111.026 116.687 109.968C115.134 108.91 113.58 108.488 113.2 109.042C112.828 109.588 113.778 110.893 115.332 111.951C116.886 113.009 118.448 113.423 118.82 112.877ZM83.3045 90.0322C84.8583 91.0902 86.4122 91.5117 86.7924 90.9579C87.1643 90.4124 86.2138 89.1065 84.66 88.0486C83.1061 86.9907 81.5523 86.5691 81.1721 87.1229C80.8001 87.6684 81.7589 88.9743 83.3045 90.0322ZM122.415 95.793C122.291 95.1401 120.696 94.8921 118.853 95.2393C117.01 95.5864 115.613 96.3964 115.729 97.0493C115.853 97.7023 117.448 97.9502 119.291 97.6031C121.142 97.256 122.539 96.446 122.415 95.793ZM81.1473 104.761C82.9904 104.414 84.3872 103.604 84.2715 102.951C84.1475 102.298 82.5523 102.05 80.7092 102.397C78.8661 102.744 77.4693 103.554 77.585 104.207C77.709 104.852 79.3041 105.1 81.1473 104.761ZM104.207 122.415C104.86 122.291 105.108 120.696 104.761 118.853C104.414 117.01 103.604 115.613 102.951 115.729C102.298 115.853 102.05 117.448 102.397 119.291C102.744 121.142 103.554 122.539 104.207 122.415ZM95.2393 81.1472C95.5865 82.9903 96.3965 84.3871 97.0494 84.2714C97.7024 84.1474 97.9503 82.5523 97.6032 80.7091C97.256 78.866 96.4461 77.4692 95.7931 77.5849C95.1484 77.7089 94.9005 79.3041 95.2393 81.1472ZM118.109 86.1393C117.704 85.6104 116.167 86.1146 114.679 87.2551C113.191 88.3957 112.307 89.7512 112.712 90.2719C113.117 90.8009 114.654 90.2967 116.142 89.1561C117.63 88.0155 118.514 86.6683 118.109 86.1393ZM85.3212 112.745C86.8089 111.604 87.6933 110.249 87.2883 109.728C86.8833 109.199 85.346 109.703 83.8582 110.844C82.3705 111.984 81.4861 113.34 81.8911 113.861C82.2961 114.39 83.8252 113.885 85.3212 112.745ZM113.861 118.109C114.39 117.704 113.886 116.167 112.745 114.679C111.604 113.191 110.249 112.307 109.728 112.712C109.199 113.117 109.703 114.654 110.844 116.142C111.985 117.63 113.332 118.514 113.861 118.109ZM87.2552 85.3211C88.3958 86.8088 89.7513 87.6932 90.272 87.2882C90.801 86.8832 90.2968 85.3459 89.1562 83.8582C88.0156 82.3704 86.6601 81.4861 86.1394 81.8911C85.6105 82.2961 86.1146 83.8251 87.2552 85.3211ZM122.605 103.009C122.696 102.347 121.258 101.62 119.39 101.372C117.53 101.124 115.952 101.455 115.861 102.116C115.77 102.777 117.208 103.504 119.076 103.752C120.944 103.992 122.523 103.661 122.605 103.009ZM80.6018 98.6362C82.4614 98.8842 84.0401 98.5536 84.131 97.8924C84.2219 97.2312 82.7838 96.5038 80.9159 96.2559C79.0562 96.0079 77.4775 96.3385 77.3866 96.9997C77.304 97.6527 78.7421 98.3883 80.6018 98.6362ZM96.9916 122.605C97.6528 122.696 98.3801 121.258 98.6281 119.39C98.876 117.53 98.5454 115.952 97.8842 115.861C97.223 115.77 96.4956 117.208 96.2477 119.076C96.008 120.944 96.3386 122.523 96.9916 122.605ZM101.364 80.6017C101.116 82.4614 101.446 84.04 102.108 84.1309C102.769 84.2218 103.496 82.7837 103.744 80.9158C103.992 79.0561 103.662 77.4775 103 77.3866C102.347 77.3039 101.612 78.742 101.364 80.6017ZM115.605 91.6853C115.365 91.2307 114.125 91.4208 112.844 92.1068C111.563 92.7928 110.712 93.7102 110.951 94.1648C111.191 94.6194 112.431 94.4293 113.712 93.7433C115.001 93.0655 115.844 92.1398 115.605 91.6853ZM87.1643 107.893C88.4454 107.207 89.2967 106.29 89.057 105.835C88.8173 105.381 87.5776 105.571 86.2965 106.257C85.0154 106.943 84.1641 107.86 84.4037 108.315C84.6352 108.769 85.8749 108.579 87.1643 107.893ZM108.315 115.605C108.769 115.365 108.579 114.125 107.893 112.844C107.207 111.563 106.29 110.712 105.835 110.951C105.381 111.191 105.571 112.431 106.257 113.712C106.935 115.001 107.86 115.844 108.315 115.605ZM92.1069 87.1642C92.7929 88.4453 93.7103 89.2966 94.1649 89.0569C94.6195 88.8173 94.4294 87.5775 93.7434 86.2964C93.0573 85.0153 92.1399 84.164 91.6853 84.4037C91.2308 84.6351 91.4209 85.8749 92.1069 87.1642ZM116.911 105.157C117.059 104.67 116.051 103.926 114.662 103.496C113.266 103.075 112.018 103.124 111.869 103.62C111.72 104.108 112.728 104.852 114.117 105.281C115.514 105.703 116.762 105.645 116.911 105.157ZM85.3377 96.5038C86.7345 96.9254 87.9825 96.8758 88.1313 96.3799C88.2801 95.8922 87.2718 95.1484 85.8832 94.7186C84.4864 94.297 83.2384 94.3466 83.0896 94.8425C82.9408 95.3385 83.9492 96.0741 85.3377 96.5038ZM94.8426 116.91C95.3303 117.059 96.0741 116.051 96.5039 114.662C96.9254 113.266 96.8758 112.018 96.3799 111.869C95.8923 111.72 95.1484 112.728 94.7186 114.117C94.2971 115.514 94.355 116.762 94.8426 116.91ZM103.496 85.3376C103.075 86.7344 103.124 87.9825 103.62 88.1312C104.108 88.28 104.852 87.2717 105.281 85.8831C105.703 84.4863 105.653 83.2383 105.158 83.0895C104.662 82.9407 103.926 83.9491 103.496 85.3376ZM115.977 99.5206C115.96 99.0578 114.886 98.7106 113.571 98.752C112.257 98.7933 111.199 99.1983 111.216 99.6611C111.232 100.124 112.307 100.471 113.621 100.43C114.935 100.388 115.985 99.9835 115.977 99.5206ZM86.437 101.248C87.7511 101.207 88.8091 100.802 88.7925 100.339C88.776 99.876 87.7015 99.5289 86.3874 99.5702C85.0732 99.6115 84.0153 100.017 84.0318 100.479C84.0401 100.942 85.1228 101.289 86.437 101.248ZM100.479 115.977C100.942 115.96 101.289 114.886 101.248 113.571C101.207 112.257 100.802 111.199 100.339 111.216C99.8761 111.232 99.529 112.307 99.5703 113.621C99.6033 114.935 100.017 115.985 100.479 115.977ZM98.752 86.4369C98.7934 87.751 99.1984 88.809 99.6612 88.7925C100.124 88.7759 100.471 87.7015 100.43 86.3873C100.389 85.0731 99.9835 84.0152 99.5207 84.0317C99.0578 84.04 98.7107 85.1227 98.752 86.4369ZM111.629 110.96C111.951 110.621 111.431 109.612 110.472 108.711C109.513 107.811 108.48 107.348 108.158 107.687C107.835 108.025 108.356 109.034 109.315 109.935C110.282 110.836 111.315 111.298 111.629 110.96ZM89.5281 91.2885C90.4869 92.1894 91.52 92.6523 91.8424 92.3134C92.1647 91.9745 91.644 90.9662 90.6853 90.0653C89.7265 89.1644 88.6934 88.7015 88.371 89.0404C88.0487 89.3793 88.5694 90.3876 89.5281 91.2885ZM89.0405 111.629C89.3794 111.951 90.3877 111.431 91.2886 110.472C92.1895 109.513 92.6524 108.48 92.3135 108.158C91.9746 107.835 90.9663 108.356 90.0654 109.315C89.1645 110.282 88.7016 111.315 89.0405 111.629ZM108.712 89.5281C107.811 90.4868 107.348 91.52 107.687 91.8423C108.026 92.1646 109.034 91.6439 109.935 90.6852C110.836 89.7264 111.299 88.6933 110.96 88.3709C110.621 88.0486 109.612 88.5693 108.712 89.5281ZM113.009 101.876C113.067 101.496 112.241 101.066 111.166 100.909C110.092 100.752 109.183 100.934 109.125 101.314C109.067 101.694 109.893 102.124 110.968 102.281C112.042 102.438 112.96 102.256 113.009 101.876ZM88.8256 99.0826C89.9001 99.2396 90.8092 99.0578 90.8671 98.6776C90.9249 98.2974 90.0984 97.8676 89.024 97.7106C87.9495 97.5535 87.0403 97.7353 86.9825 98.1155C86.9329 98.4957 87.7594 98.9338 88.8256 99.0826ZM98.1239 113.009C98.5041 113.067 98.9339 112.241 99.0909 111.166C99.2479 110.092 99.0661 109.183 98.6859 109.125C98.3057 109.067 97.8759 109.893 97.7189 110.968C97.5619 112.042 97.7437 112.96 98.1239 113.009ZM100.918 88.8255C100.76 89.9 100.942 90.8092 101.322 90.867C101.703 90.9249 102.132 90.0984 102.29 89.0239C102.447 87.9494 102.265 87.0402 101.885 86.9824C101.504 86.9328 101.066 87.7593 100.918 88.8255ZM107.868 110.53C108.174 110.298 107.893 109.414 107.249 108.546C106.604 107.678 105.827 107.158 105.521 107.389C105.215 107.62 105.496 108.505 106.141 109.373C106.794 110.241 107.563 110.761 107.868 110.53ZM92.7515 91.4538C93.3962 92.3217 94.1731 92.8424 94.479 92.611C94.7848 92.3795 94.5037 91.4952 93.8591 90.6273C93.2144 89.7595 92.4375 89.2388 92.1317 89.4702C91.8258 89.7016 92.0986 90.586 92.7515 91.4538ZM89.4703 107.868C89.7017 108.174 90.5861 107.893 91.4539 107.249C92.3218 106.604 92.8425 105.827 92.611 105.521C92.3796 105.215 91.4952 105.496 90.6274 106.141C89.7596 106.794 89.2389 107.563 89.4703 107.868ZM108.546 92.7515C107.678 93.3961 107.158 94.1731 107.389 94.4789C107.621 94.7847 108.505 94.5037 109.373 93.859C110.241 93.2143 110.761 92.4374 110.53 92.1316C110.298 91.8258 109.414 92.0985 108.546 92.7515ZM112.695 96.5948C112.596 96.2228 111.67 96.1567 110.621 96.4377C109.571 96.7187 108.811 97.2477 108.91 97.6114C109.009 97.9833 109.935 98.0494 110.984 97.7684C112.034 97.4874 112.795 96.9667 112.695 96.5948ZM89.3711 103.562C90.4208 103.281 91.1812 102.752 91.082 102.389C90.9828 102.017 90.0571 101.951 89.0074 102.232C87.9578 102.513 87.1974 103.042 87.2965 103.405C87.404 103.777 88.3297 103.843 89.3711 103.562ZM103.405 112.695C103.777 112.596 103.843 111.67 103.562 110.621C103.281 109.571 102.752 108.811 102.389 108.91C102.017 109.009 101.951 109.935 102.232 110.984C102.513 112.034 103.033 112.794 103.405 112.695ZM96.4378 89.371C96.7188 90.4207 97.2478 91.1811 97.6114 91.0819C97.9834 90.9827 98.0495 90.057 97.7685 89.0074C97.4875 87.9577 96.9585 87.1973 96.5948 87.2965C96.2229 87.4039 96.1568 88.3296 96.4378 89.371ZM111.389 106.571C111.58 106.24 110.976 105.529 110.034 104.992C109.092 104.455 108.183 104.281 107.992 104.612C107.802 104.943 108.406 105.653 109.348 106.191C110.282 106.728 111.199 106.901 111.389 106.571ZM89.9662 95.0078C90.9001 95.5451 91.8176 95.7187 92.0077 95.388C92.1978 95.0574 91.5944 94.3466 90.6522 93.8094C89.71 93.2722 88.8008 93.0986 88.6107 93.4292C88.4206 93.7598 89.024 94.4706 89.9662 95.0078ZM93.4293 111.389C93.7599 111.579 94.4707 110.976 95.0079 110.034C95.5452 109.092 95.7187 108.182 95.3881 107.992C95.0575 107.802 94.3467 108.406 93.8095 109.348C93.2722 110.282 93.0987 111.199 93.4293 111.389ZM104.992 89.9661C104.455 90.9001 104.281 91.8175 104.612 92.0076C104.943 92.1977 105.653 91.5943 106.191 90.6521C106.728 89.7182 106.901 88.8007 106.571 88.6106C106.24 88.4205 105.529 89.0239 104.992 89.9661ZM109.034 99.157C109.009 98.8925 108.389 98.7354 107.645 98.8098C106.901 98.8759 106.315 99.1487 106.339 99.4132C106.364 99.6777 106.984 99.8347 107.728 99.7603C108.48 99.6859 109.059 99.4132 109.034 99.157ZM92.3548 101.198C93.0987 101.132 93.6855 100.86 93.6607 100.595C93.6359 100.331 93.016 100.174 92.2722 100.248C91.5283 100.314 90.9415 100.587 90.9663 100.851C90.9911 101.108 91.6109 101.265 92.3548 101.198ZM100.843 109.034C101.108 109.009 101.265 108.389 101.19 107.645C101.124 106.901 100.851 106.315 100.587 106.339C100.322 106.364 100.165 106.984 100.24 107.728C100.314 108.48 100.587 109.059 100.843 109.034ZM98.8016 92.3547C98.8677 93.0986 99.1405 93.6854 99.405 93.6606C99.6695 93.6358 99.8265 93.0159 99.7521 92.2721C99.686 91.5282 99.4132 90.9414 99.1488 90.9662C98.8925 90.991 98.7355 91.6109 98.8016 92.3547ZM106.984 105.794C107.149 105.587 106.819 105.042 106.249 104.562C105.67 104.083 105.067 103.86 104.901 104.066C104.736 104.273 105.067 104.819 105.637 105.298C106.215 105.769 106.819 105.992 106.984 105.794ZM93.7516 95.4376C94.3302 95.917 94.9335 96.1402 95.0988 95.9335C95.2641 95.7269 94.9335 95.1814 94.3632 94.702C93.7847 94.2227 93.1813 93.9995 93.016 94.2061C92.8425 94.4128 93.1731 94.9665 93.7516 95.4376ZM94.2062 106.984C94.4128 107.149 94.9583 106.819 95.4377 106.248C95.9171 105.67 96.1402 105.067 95.9336 104.901C95.727 104.736 95.1815 105.067 94.7021 105.637C94.231 106.215 94.0078 106.819 94.2062 106.984ZM104.562 93.7515C104.083 94.3301 103.86 94.9335 104.067 95.0988C104.273 95.2641 104.819 94.9335 105.298 94.3632C105.777 93.7846 106.001 93.1813 105.794 93.0159C105.587 92.8424 105.034 93.173 104.562 93.7515ZM100 96.6691C98.1652 96.6691 96.6692 98.1569 96.6692 100C96.6692 101.835 98.1569 103.331 100 103.331C101.835 103.331 103.331 101.843 103.331 100C103.331 98.1651 101.835 96.6691 100 96.6691Z" fill="url(#paint30_linear)"/>
<defs>
<radialGradient id="paint0_radial" cx="0" cy="0" r="1" gradientUnits="userSpaceOnUse" gradientTransform="translate(204.594 -6.73841) scale(173.75)">
<stop stop-color="#C24A4A"/>
<stop offset="1" stop-color="#7A1212"/>
</radialGradient>
<linearGradient id="paint1_linear" x1="122.931" y1="-5.23737" x2="94.0514" y2="95.4029" gradientUnits="userSpaceOnUse">
<stop stop-color="#C24A4A"/>
<stop offset="1" stop-color="#7A1212"/>
</linearGradient>
<linearGradient id="paint2_linear" x1="159.964" y1="22.9474" x2="110.777" y2="106.311" gradientUnits="userSpaceOnUse">
<stop stop-color="#C24A4A"/>
<stop offset="1" stop-color="#7A1212"/>
</linearGradient>
<linearGradient id="paint3_linear" x1="100" y1="56.3559" x2="170.717" y2="56.3559" gradientUnits="userSpaceOnUse">
<stop stop-color="#C24A4A"/>
<stop offset="0.1315" stop-color="#AB3838"/>
<stop offset="0.2982" stop-color="#952727"/>
<stop offset="0.482" stop-color="#861B1B"/>
<stop offset="0.6941" stop-color="#7D1414"/>
<stop offset="1" stop-color="#7A1212"/>
</linearGradient>
<linearGradient id="paint4_linear" x1="152.085" y1="-1.27259" x2="89.9509" y2="104.035" gradientUnits="userSpaceOnUse">
<stop stop-color="#C24A4A"/>
<stop offset="1" stop-color="#7A1212"/>
</linearGradient>
<linearGradient id="paint5_linear" x1="165.717" y1="37.0343" x2="121.208" y2="112.469" gradientUnits="userSpaceOnUse">
<stop stop-color="#C24A4A"/>
<stop offset="1" stop-color="#7A1212"/>
</linearGradient>
<linearGradient id="paint6_linear" x1="166.671" y1="71.742" x2="137.089" y2="121.879" gradientUnits="userSpaceOnUse">
<stop stop-color="#C24A4A"/>
<stop offset="1" stop-color="#7A1212"/>
</linearGradient>
<linearGradient id="paint7_linear" x1="168.538" y1="52.7802" x2="130.183" y2="117.786" gradientUnits="userSpaceOnUse">
<stop stop-color="#C24A4A"/>
<stop offset="1" stop-color="#7A1212"/>
</linearGradient>
<linearGradient id="paint8_linear" x1="125.073" y1="114.802" x2="81.3099" y2="188.972" gradientUnits="userSpaceOnUse">
<stop stop-color="#C24A4A"/>
<stop offset="1" stop-color="#7A1212"/>
</linearGradient>
<linearGradient id="paint9_linear" x1="137.744" y1="122.288" x2="112.762" y2="164.628" gradientUnits="userSpaceOnUse">
<stop stop-color="#C24A4A"/>
<stop offset="1" stop-color="#7A1212"/>
</linearGradient>
<linearGradient id="paint10_linear" x1="132.512" y1="119.203" x2="96.9299" y2="179.51" gradientUnits="userSpaceOnUse">
<stop stop-color="#C24A4A"/>
<stop offset="1" stop-color="#7A1212"/>
</linearGradient>
<linearGradient id="paint11_linear" x1="160.292" y1="92.6248" x2="141.495" y2="124.482" gradientUnits="userSpaceOnUse">
<stop stop-color="#C24A4A"/>
<stop offset="1" stop-color="#7A1212"/>
</linearGradient>
<linearGradient id="paint12_linear" x1="141.716" y1="124.619" x2="129.034" y2="146.114" gradientUnits="userSpaceOnUse">
<stop stop-color="#C24A4A"/>
<stop offset="1" stop-color="#7A1212"/>
</linearGradient>
<linearGradient id="paint13_linear" x1="221.864" y1="101.071" x2="104.888" y2="99.3204" gradientUnits="userSpaceOnUse">
<stop stop-color="#C24A4A"/>
<stop offset="0.1315" stop-color="#AB3838"/>
<stop offset="0.2982" stop-color="#952727"/>
<stop offset="0.482" stop-color="#861B1B"/>
<stop offset="0.6941" stop-color="#7D1414"/>
<stop offset="1" stop-color="#7A1212"/>
</linearGradient>
<linearGradient id="paint14_linear" x1="149.792" y1="114.023" x2="143.069" y2="125.417" gradientUnits="userSpaceOnUse">
<stop stop-color="#C24A4A"/>
<stop offset="1" stop-color="#7A1212"/>
</linearGradient>
<linearGradient id="paint15_linear" x1="87.2385" y1="35.3719" x2="62.2568" y2="77.7119" gradientUnits="userSpaceOnUse">
<stop stop-color="#C24A4A"/>
<stop offset="1" stop-color="#7A1212"/>
</linearGradient>
<linearGradient id="paint16_linear" x1="93.8301" y1="-5.86329" x2="93.8301" y2="108.038" gradientUnits="userSpaceOnUse">
<stop stop-color="#C24A4A"/>
<stop offset="1" stop-color="#7A1212"/>
</linearGradient>
<linearGradient id="paint17_linear" x1="103.07" y1="20.4905" x2="67.4878" y2="80.7968" gradientUnits="userSpaceOnUse">
<stop stop-color="#C24A4A"/>
<stop offset="1" stop-color="#7A1212"/>
</linearGradient>
<linearGradient id="paint18_linear" x1="3.39697" y1="87.0609" x2="99.9917" y2="87.0609" gradientUnits="userSpaceOnUse">
<stop stop-color="#C24A4A"/>
<stop offset="1" stop-color="#7A1212"/>
</linearGradient>
<linearGradient id="paint19_linear" x1="70.9666" y1="53.8859" x2="58.2839" y2="75.3809" gradientUnits="userSpaceOnUse">
<stop stop-color="#C24A4A"/>
<stop offset="1" stop-color="#7A1212"/>
</linearGradient>
<linearGradient id="paint20_linear" x1="56.9284" y1="74.5811" x2="50.2055" y2="85.9754" gradientUnits="userSpaceOnUse">
<stop stop-color="#C24A4A"/>
<stop offset="1" stop-color="#7A1212"/>
</linearGradient>
<linearGradient id="paint21_linear" x1="115.918" y1="109.4" x2="66.9609" y2="192.374" gradientUnits="userSpaceOnUse">
<stop stop-color="#C24A4A"/>
<stop offset="1" stop-color="#7A1212"/>
</linearGradient>
<linearGradient id="paint22_linear" x1="89.2229" y1="93.6887" x2="40.0359" y2="177.053" gradientUnits="userSpaceOnUse">
<stop stop-color="#C24A4A"/>
<stop offset="1" stop-color="#7A1212"/>
</linearGradient>
<linearGradient id="paint23_linear" x1="105.675" y1="103.378" x2="54.873" y2="189.48" gradientUnits="userSpaceOnUse">
<stop stop-color="#C24A4A"/>
<stop offset="1" stop-color="#7A1212"/>
</linearGradient>
<linearGradient id="paint24_linear" x1="62.9114" y1="78.1215" x2="33.3295" y2="128.258" gradientUnits="userSpaceOnUse">
<stop stop-color="#C24A4A"/>
<stop offset="1" stop-color="#7A1212"/>
</linearGradient>
<linearGradient id="paint25_linear" x1="78.792" y1="87.5309" x2="34.2834" y2="162.966" gradientUnits="userSpaceOnUse">
<stop stop-color="#C24A4A"/>
<stop offset="1" stop-color="#7A1212"/>
</linearGradient>
<linearGradient id="paint26_linear" x1="69.8172" y1="82.2142" x2="31.462" y2="147.22" gradientUnits="userSpaceOnUse">
<stop stop-color="#C24A4A"/>
<stop offset="1" stop-color="#7A1212"/>
</linearGradient>
<linearGradient id="paint27_linear" x1="15.6273" y1="100" x2="184.373" y2="100" gradientUnits="userSpaceOnUse">
<stop stop-color="#E5AC47"/>
<stop offset="0.00892104" stop-color="#E2A742"/>
<stop offset="0.0465" stop-color="#D79731"/>
<stop offset="0.0872" stop-color="#D08E26"/>
<stop offset="0.1363" stop-color="#CE8B23"/>
<stop offset="0.3135" stop-color="#F2D266"/>
<stop offset="0.4902" stop-color="#EEC85D"/>
<stop offset="0.6486" stop-color="#EFCA56"/>
<stop offset="0.7452" stop-color="#F1CD4F"/>
<stop offset="0.8124" stop-color="#F2D05F"/>
<stop offset="0.8661" stop-color="#F2D266"/>
<stop offset="0.9459" stop-color="#E9B851"/>
<stop offset="1" stop-color="#E5AC47"/>
</linearGradient>
<linearGradient id="paint28_linear" x1="33.5802" y1="99.8032" x2="166.469" y2="99.8032" gradientUnits="userSpaceOnUse">
<stop stop-color="#A36A25"/>
<stop offset="0.00785766" stop-color="#AD772A"/>
<stop offset="0.0301" stop-color="#C69638"/>
<stop offset="0.0534" stop-color="#D9AE42"/>
<stop offset="0.0779" stop-color="#E6BF49"/>
<stop offset="0.1044" stop-color="#EECA4E"/>
<stop offset="0.1363" stop-color="#F1CD4F"/>
<stop offset="0.3135" stop-color="#E7B44D"/>
<stop offset="0.3178" stop-color="#E6B34C"/>
<stop offset="0.429" stop-color="#D0922D"/>
<stop offset="0.4902" stop-color="#C88622"/>
<stop offset="0.5393" stop-color="#CC8D27"/>
<stop offset="0.6104" stop-color="#D6A034"/>
<stop offset="0.6944" stop-color="#E6BF4A"/>
<stop offset="0.7452" stop-color="#F2D65A"/>
<stop offset="0.7651" stop-color="#EFCE57"/>
<stop offset="0.8248" stop-color="#E9BB50"/>
<stop offset="0.8661" stop-color="#E7B44D"/>
<stop offset="0.9107" stop-color="#CC973D"/>
<stop offset="0.9683" stop-color="#AE762C"/>
<stop offset="1" stop-color="#A36A25"/>
</linearGradient>
<linearGradient id="paint29_linear" x1="37.3551" y1="99.8031" x2="162.754" y2="99.8031" gradientUnits="userSpaceOnUse">
<stop stop-color="#A36A25"/>
<stop offset="0.00785766" stop-color="#AD772A"/>
<stop offset="0.0301" stop-color="#C69638"/>
<stop offset="0.0534" stop-color="#D9AE42"/>
<stop offset="0.0779" stop-color="#E6BF49"/>
<stop offset="0.1044" stop-color="#EECA4E"/>
<stop offset="0.1363" stop-color="#F1CD4F"/>
<stop offset="0.3135" stop-color="#E7B44D"/>
<stop offset="0.3178" stop-color="#E6B34C"/>
<stop offset="0.429" stop-color="#D0922D"/>
<stop offset="0.4902" stop-color="#C88622"/>
<stop offset="0.5393" stop-color="#CC8D27"/>
<stop offset="0.6104" stop-color="#D6A034"/>
<stop offset="0.6944" stop-color="#E6BF4A"/>
<stop offset="0.7452" stop-color="#F2D65A"/>
<stop offset="0.7651" stop-color="#EFCE57"/>
<stop offset="0.8248" stop-color="#E9BB50"/>
<stop offset="0.8661" stop-color="#E7B44D"/>
<stop offset="0.9107" stop-color="#CC973D"/>
<stop offset="0.9683" stop-color="#AE762C"/>
<stop offset="1" stop-color="#A36A25"/>
</linearGradient>
<linearGradient id="paint30_linear" x1="44.7448" y1="145.913" x2="165.513" y2="45.5642" gradientUnits="userSpaceOnUse">
<stop stop-color="#8B5421"/>
<stop offset="0.0296" stop-color="#955E23"/>
<stop offset="0.0779" stop-color="#A06724"/>
<stop offset="0.1363" stop-color="#A36A25"/>
<stop offset="0.3135" stop-color="#E5AC47"/>
<stop offset="0.4103" stop-color="#EDC14C"/>
<stop offset="0.4902" stop-color="#F1CD4F"/>
<stop offset="0.6486" stop-color="#F0CB56"/>
<stop offset="0.7452" stop-color="#EEC85D"/>
<stop offset="0.751" stop-color="#EDC65B"/>
<stop offset="0.819" stop-color="#E7B34C"/>
<stop offset="0.8661" stop-color="#E5AC47"/>
<stop offset="0.9235" stop-color="#B88034"/>
<stop offset="0.9729" stop-color="#976026"/>
<stop offset="1" stop-color="#8B5421"/>
</linearGradient>
</defs>
</svg>
